<?xml version="1.0" standalone="no"?>
<!DOCTYPE svg PUBLIC "-//W3C//DTD SVG 1.1//EN" "../../../www.w3.org/Graphics/SVG/1.1/DTD/svg11.dtd" >
<svg xmlns="http://www.w3.org/2000/svg">
<metadata></metadata>
<defs>
<font id="dosisbold" horiz-adv-x="1177" >
<font-face units-per-em="2048" ascent="1638" descent="-410" />
<missing-glyph horiz-adv-x="409" />
<glyph unicode="&#xfb01;" horiz-adv-x="1159" d="M104 82v1010q0 90 35 172t100.5 143t159 97t211.5 36q63 0 127 -10t113 -29.5t80 -46.5t31 -59q0 -12 -6.50E4CB1FA28" />
<glyph unicode="&#xfb02;" horiz-adv-x="1181" d="M104 82v1010q0 109 44.5 192.5t119 140t172 86t203.5 29.5q55 0 114.5 -8t117 -23.5t105.5 -40t81 -57.5v-01FD563AD3" />
<glyph horiz-adv-x="2048" />
<glyph horiz-adv-x="2048" />
<glyph unicode="&#xd;" horiz-adv-x="0" />
<glyph unicode=" "  horiz-adv-x="409" />
<glyph unicode="&#x09;" horiz-adv-x="409" />
<glyph unicode="&#xa0;" horiz-adv-x="409" />
<glyph unicode="!" horiz-adv-x="450" d="M86 127q0 57 40 98t99 41q57 0 98.5 -41t41.5 -98q0 -55 -41 -97t-99 -42q-59 0 -99 42t-40 97zM96 1393q006FF33DA22" />
<glyph unicode="&#x22;" horiz-adv-x="620" d="M57 1505q0 31 30 49.5t67 18.5t68.5 -18.5t31.5 -49.5l-21 -282q0 -25 -19 -46.5t-60 -21.5t-58.5 21.5t-10830610AF4" />
<glyph unicode="#" horiz-adv-x="1388" d="M47 547q0 43 20.5 72.5t53.5 29.5h198l46 252h-160q-35 0 -55.5 25.5t-20.5 70.5q0 43 19.5 72t54.5 29h200l56 307q6 27 38.5 41t71.5 14q47 0 84 -23.5t37 -76.5l-47 -262h225l56 307q4 27 36.5 41t71.5 14q47 0 84 -23.5t39 -76.5l-49 -262h160q29 0 53 -28t24 -71 t-23.5 -70.5t-51.5 -27.5h-197l-47 -252h160q29 0 54.5 -28.5t25.5 -69.5q0 -45 -25 -72.5t-53 -27.5h-199l-59 -328q-4 -29 -37 -45.5t-68 -16.5q-43 0 -87 25t-44 74l51 291h-221l-59 -328q-4 -29 -38 -45.5t-65 -16.5q-43 0 -86 25t-43 74l50 291h-160q-35 0 -54.5 26.5 t-19.5 69.5zM561 649h221l47 252h-223z" />
<glyph unicode="$" horiz-adv-x="1075" d="M53 256q0 20 9.5 46t24.5 47.5t35.5 35.5t45.5 14q29 0 57.5 -21.5t64.5 -48t83 -51t114 -32.5v407q-70 27 -140.5 57.5t-127.5 77t-93 113t-36 164.5t33 169t88 119t127 74.5t149 36.5v58q0 20 20.5 35.5t49.5 15.5q27 0 48.5 -15.5t21.5 -35.5v-54q49 -2 110.5 -10 t114.5 -27.5t89 -49t36 -74.5q0 -18 -6 -42t-19.5 -46.5t-34 -38t-49.5 -15.5q-23 0 -43 10.5t-47.5 23.5t-63.5 25.5t-87 16.5v-360q68 -25 137.5 -57.5t124.5 -83t90 -122t35 -176.5q0 -188 -107.5 -297.5t-279.5 -136.5v-63q0 -20 -21.5 -35.5t-48.5 -15.5 q-29 0 -49.5 15t-20.5 36v57q-92 2 -171.5 25.5t-138 60.5t-91.5 81t-33 87zM340 1092q0 -68 46 -103t118 -63v309q-78 -12 -121 -48t-43 -95zM610 248q68 14 111 55t43 113q0 76 -44 117.5t-110 70.5v-356z" />
<glyph unicode="%" horiz-adv-x="1611" d="M51 936v297q0 72 22.5 122t61.5 81.5t93.5 46t115.5 14.5t114.5 -14.5t92.5 -46t61.5 -81.5t22.5 -122v-297q0 -72 -22.5 -122t-61.5 -82t-92.5 -46t-114.5 -14t-115.5 14t-93.5 46t-61.5 82t-22.5 122zM229 936q0 -57 31 -84t84 -27t85 27t32 84v297q0 57 -32 83.5 t-85 26.5t-84 -26.5t-31 -83.5v-297zM350 8q0 14 8 35l738 1493q10 23 30 33t43 10q35 0 69 -25.5t34 -66.5q0 -20 -8 -37l-738 -1487q-10 -23 -31.5 -34t-48.5 -11q-43 0 -69.5 28.5t-26.5 61.5zM975 258v297q0 72 22.5 122t61.5 82t93 46t116 14q61 0 114.5 -14t92 -46 t61.5 -82t23 -122v-297q0 -74 -23 -124t-61.5 -80.5t-92 -45t-114.5 -14.5t-115.5 14.5t-93.5 45t-61.5 80.5t-22.5 124zM1153 258q0 -57 30.5 -84t84.5 -27q53 0 84.5 27t31.5 84v297q0 57 -31.5 84t-84.5 27t-84 -27t-31 -84v-297z" />
<glyph unicode="&#x26;" horiz-adv-x="1314" d="M45 430q0 70 20.5 133.5t56.5 117.5t82 95t97 70q-59 66 -101 139.5t-42 175.5q0 88 33.5 156.5t92 117t136.5 73t168 24.5q92 0 166.5 -23.5t127 -59.5t80 -78t27.5 -79q0 -47 -39 -85t-86 -38q-35 0 -58.5 24t-51 51.5t-65.5 51t-99 23.5q-78 0 -130 -44t-52 -126 q0 -47 20.5 -91t52 -85t68.5 -80t69 -72l330 -348q33 78 37 149.5t8 122.5q4 41 26.5 61.5t92.5 20.5t91.5 -31.5t21.5 -90.5q0 -78 -27 -185.5t-88 -212.5l166 -172q16 -18 16 -45q0 -20 -10 -39.5t-27.5 -35t-40 -24.5t-45.5 -9q-16 0 -31.5 6t-33.5 24l-127 131 q-78 -72 -180.5 -117.5t-237.5 -45.5q-119 0 -214 36.5t-161.5 98t-102.5 143.5t-36 172zM313 453q0 -102 71 -172t206 -70q78 0 135 26.5t94 67.5l-368 385q-53 -39 -95.5 -95t-42.5 -142z" />
<glyph unicode="'" horiz-adv-x="311" d="M57 1505q0 31 30 49.5t67 18.5t68.5 -18.5t31.5 -49.5l-21 -282q0 -25 -19 -46.5t-60 -21.5t-58.5 21.5t-17.5 46.5z" />
<glyph unicode="(" horiz-adv-x="698" d="M98 340v823q0 92 39 168t101.5 129t140.5 83t156 30t104.5 -34t26.5 -81q0 -53 -24 -85t-60 -32q-53 0 -93 -15t-69 -40.5t-43.5 -57.5t-14.5 -65v-823q0 -47 20.5 -75.5t53.5 -45t71 -23t75 -6.5q53 0 68.5 -36.5t15.5 -79.5q0 -51 -26 -83t-112 -32q-78 0 -154.5 22.5 t-138 68.5t-99.5 118t-38 172z" />
<glyph unicode=")" horiz-adv-x="698" d="M33 74q0 43 15 79.5t69 36.5q37 0 74.5 6.5t69.5 23t52.5 45t20.5 75.5v823q0 33 -14.5 65t-42 57.5t-68.5092ACEDA90" />
<glyph unicode="*" horiz-adv-x="962" d="M47 1169q0 35 27.5 67t68.5 32q4 0 10.5 -1t16.5 -5l227 -76l-10 227q2 43 29.5 63.5t64.5 20.5t64.5 -20.5t29.5 -63.5l-10 -229l230 78q14 6 26 6q41 0 66.5 -35t25.5 -74q0 -27 -14 -49.5t-47 -28.5l-221 -55l149 -213q14 -18 15 -49q0 -43 -34 -69.5t-73 -26.5 q-16 0 -33.5 6t-33.5 28l-140 211l-141 -213q-12 -20 -27.5 -26t-33.5 -6q-16 0 -35 6t-36.5 18.5t-28.5 28.5t-11 39q0 16 6 30.5t16 24.5l144 201l-228 65q-31 6 -45 31t-14 57z" />
<glyph unicode="+" horiz-adv-x="909" d="M43 492q0 47 22.5 78.5t59.5 31.5h219v217q0 33 32 58.5t79 25.5q49 0 78.5 -25.5t29.5 -58.5v-217h217q330221676A1B" />
<glyph unicode="," horiz-adv-x="395" d="M59 127q0 57 40.5 98t97.5 41t98 -40t41 -97q0 -8 -2 -20.5t-13.5 -42t-34 -86t-63.5 -150.5q-10 -20 -24.02CC08AA89" />
<glyph unicode="-" horiz-adv-x="845" d="M74 492q0 47 22.5 78.5t59.5 31.5h532q33 0 59.5 -31.5t26.5 -78.5q0 -49 -26.5 -79t-59.5 -30h-532q-37 0 -59.5 30t-22.5 79z" />
<glyph unicode="." horiz-adv-x="391" d="M57 127q0 57 40.5 98t99.5 41q55 0 96 -41t41 -98q0 -55 -41 -97t-96 -42q-59 0 -99.5 42t-40.5 97z" />
<glyph unicode="../../default.htm" horiz-adv-x="991" d="M35 8q0 18 10 35l735 1493q10 23 30.5 33t43.5 10q37 0 69.5 -25.5t32.5 -66.5q0 -20 -8 -37l-735 -1487q-10 -23 -32.5 -34t-47.5 -11q-45 0 -71.5 28.5t-26.5 61.5z" />
<glyph unicode="0" horiz-adv-x="1148" d="M94 457v571q0 129 37 218t101.5 144.5t151.5 81t189 25.5q100 0 188.5 -25.5t154 -81t102.5 -144.5t37 -210EF6351A29" />
<glyph unicode="1" horiz-adv-x="589" d="M6 1200q0 29 13.5 54.5t37.5 41.5l242 185q25 20 55 20q41 0 80 -22.5t39 -63.5v-1331q0 -41 -42 -62.5t-9004C281AB5" />
<glyph unicode="2" horiz-adv-x="1038" d="M55 84v199q0 82 49.5 152.5t122 134t158.5 123t158.5 119.5t122 124.5t49.5 136.5q0 31 -11.5 63.5t-34 590A32EC0A25" />
<glyph unicode="3" horiz-adv-x="1067" d="M41 360q0 61 28.5 83t98.5 22q82 0 109.5 -22.5t27.5 -71.5q0 -70 57.5 -110t155.5 -40q117 0 168 52.5t5104E1190AE6" />
<glyph unicode="4" horiz-adv-x="1028" d="M-2 420q0 27 14 53l486 954q18 39 49 54.5t63 15.5q18 0 41 -7t43.5 -20.5t34.5 -33t14 -41.5q0 -14 -10 -0C9A534ADF" />
<glyph unicode="5" horiz-adv-x="1042" d="M37 358q0 72 34.5 96.5t98.5 24.5q84 0 108.5 -29.5t24.5 -72.5q0 -76 60.5 -116t150.5 -40q102 0 159.5 50D43022A5D" />
<glyph unicode="6" horiz-adv-x="1124" d="M94 457v571q0 129 38 218t104.5 144.5t156.5 81t195 25.5q123 0 211 -35t145 -88t84 -120.5t27 -131.5q0 -63 -31 -86.5t-94 -23.5q-55 0 -97 20.5t-42 79.5q0 37 -16.5 64.5t-45.5 47t-66.5 30t-80.5 10.5q-104 0 -164 -56.5t-60 -179.5v-223q51 59 122 81.5t151 22.5 q86 0 163.5 -20.5t135 -69.5t91.5 -131t34 -203v-28q0 -129 -37 -218t-101.5 -144.5t-152.5 -81t-189 -25.5q-102 0 -189 25.5t-152.5 81t-102.5 144.5t-37 218zM358 440q0 -123 57.5 -179t159.5 -56q100 0 156.5 56t56.5 179v27q0 129 -56 181t-159 52q-98 0 -156.5 -49 t-58.5 -166v-45z" />
<glyph unicode="7" horiz-adv-x="1019" d="M35 1098v315q0 31 35.5 57.5t81.5 26.5h727q18 0 39.5 -7t38 -19.5t27.5 -28t11 -29.5v-233q0 -33 -16 -760F35219A6C" />
<glyph unicode="8" horiz-adv-x="1091" d="M66 410v24q0 160 66.5 252t176.5 133q-88 31 -142 109t-54 207q0 98 32.5 166.5t90 111.5t137.5 63.5t174 20.5t173 -20.5t136 -63.5t90 -111.5t33 -166.5q0 -129 -54.5 -207t-142.5 -109q111 -41 177.5 -133t66.5 -252v-24q0 -115 -37 -195t-101.5 -131t-152.5 -73.5 t-188 -22.5q-102 0 -189.5 22.5t-153 73.5t-102 131t-36.5 195zM332 440q0 -123 57 -179t158 -56q102 0 157.5 57t55.5 178v41q0 117 -56.5 171.5t-156.5 54.5q-102 0 -158.5 -54.5t-56.5 -171.5v-41zM371 1102q0 -96 45 -137t131 -41q84 0 130 41t46 137t-46 137t-130 41 q-86 0 -131 -41t-45 -137z" />
<glyph unicode="9" horiz-adv-x="1126" d="M70 362q0 63 30.5 87t94.5 24q55 0 97 -20.5t42 -79.5q0 -72 62.5 -112t148.5 -40q104 0 162.5 56.5t58.5 179.5v223q-51 -59 -121.5 -82t-150.5 -23q-86 0 -164 20.5t-135.5 70t-91 131.5t-33.5 202v29q0 129 36.5 218t101 144.5t153 81t188.5 25.5t189 -25.5t153.5 -81 t102.5 -144.5t38 -218v-571q0 -129 -38 -218t-105.5 -144.5t-157.5 -81t-194 -25.5q-123 0 -211 34.5t-144.5 88t-84 120t-27.5 131.5zM336 1018q0 -129 56.5 -181.5t158.5 -52.5q98 0 156.5 49.5t58.5 165.5v45q0 123 -57.5 179.5t-159.5 56.5q-100 0 -156.5 -56.5 t-56.5 -179.5v-26z" />
<glyph unicode=":" horiz-adv-x="456" d="M90 127q0 57 40 98t99 41q55 0 96.5 -41t41.5 -98q0 -55 -41 -97t-97 -42q-59 0 -99 42t-40 97zM90 725q0 57 40 98t99 41q55 0 96.5 -41t41.5 -98q0 -55 -41 -97t-97 -42q-59 0 -99 42t-40 97z" />
<glyph unicode=";" horiz-adv-x="458" d="M86 127q0 57 40 98t97 41t98 -40t41 -97q0 -8 -2 -20.5t-13 -42t-33.5 -86t-63.5 -150.5q-10 -20 -24.5 -200490ECA39" />
<glyph unicode="&#x3c;" horiz-adv-x="856" d="M39 567q0 23 13.5 51.5t41.5 47.5l529 346q14 8 34 8t41 -9.5t37.5 -26.5t27.5 -39.5t11 -49.5q0 -47 -33 0F86270A01" />
<glyph unicode="=" horiz-adv-x="911" d="M109 295q0 47 22.5 79t58.5 32h529q33 0 59.5 -32t26.5 -79q0 -49 -26.5 -79t-59.5 -30h-529q-37 0 -59 30t-22 79zM109 711q0 47 22.5 78.5t58.5 31.5h529q33 0 59.5 -31.5t26.5 -78.5q0 -49 -26.5 -79t-59.5 -30h-529q-37 0 -59 30t-22 79z" />
<glyph unicode="&#x3e;" horiz-adv-x="854" d="M80 240q0 23 9 41t24 28l397 258l-397 260q-14 10 -23.5 27.5t-9.5 40.5q0 27 11 49.5t28.5 39.5t38 26.5t0F7963FACC" />
<glyph unicode="?" horiz-adv-x="890" d="M43 1264q0 37 23.5 78.5t71.5 78.5t119 60.5t163 23.5q98 0 176 -26.5t132 -72.5t84 -109.5t30 -137.5q0 -80 -29 -144.5t-68.5 -114.5t-80.5 -86t-64 -56q-37 -31 -58.5 -60.5t-30.5 -61.5t-11 -68t-2 -81q0 -29 -19.5 -51t-83.5 -22q-51 0 -72.5 24.5t-21.5 89.5 q0 72 11.5 124.5t28.5 90t38.5 64.5t44.5 45q27 25 61.5 52.5t65.5 60t52.5 72.5t21.5 93q0 86 -58.5 131.5t-152.5 45.5q-76 0 -114 -22.5t-60.5 -48.5t-41 -48.5t-53.5 -22.5t-68.5 23.5t-33.5 75.5zM260 127q0 57 40 98t97 41t98.5 -41t41.5 -98q0 -55 -40 -97t-100 -42 q-59 0 -98 42t-39 97z" />
<glyph unicode="@" horiz-adv-x="1509" d="M78 428q0 156 42 290t129 234.5t219 157.5t310 57q162 0 288 -47t213 -134t133 -213t46 -284q0 -94 -17.5 -179t-54 -148.5t-94 -100t-137.5 -36.5q-88 0 -144.5 43t-70.5 106q-49 -63 -109.5 -101t-146.5 -38q-47 0 -93 13t-82 42t-58.5 74t-22.5 106q0 72 30.5 120 t86 78t130.5 42t165 12h65v31q0 72 -40 107.5t-126 35.5q-47 0 -78.5 -8t-54 -19.5t-38 -19.5t-29.5 -8t-25.5 10.5t-20 25.5t-13.5 32.5t-5 29.5q0 29 25.5 54.5t67.5 44t94.5 29t105.5 10.5q66 0 125 -17.5t105 -51.5t73 -86t27 -120v-346q8 -53 26.5 -75.5t46.5 -22.5 q39 0 62.5 30.5t36 75.5t16.5 95.5t4 89.5q0 272 -124 419.5t-388 147.5q-154 0 -255 -48t-161.5 -128t-86 -186.5t-25.5 -223.5q0 -109 22.5 -208t75.5 -175t143.5 -121t225.5 -45q61 0 105 8.5t76 18.5t53.5 18t37.5 8q33 0 49.5 -28.5t16.5 -48.5q0 -33 -39 -57.5 t-96.5 -40t-121 -22.5t-112.5 -7q-119 0 -228.5 43t-194.5 129t-135 217t-50 309zM639 274q0 -49 26.5 -73.5t67.5 -24.5q35 0 68 14.5t58.5 38t40.5 54t15 61.5v64h-51q-106 0 -165.5 -31t-59.5 -103z" />
<glyph unicode="A" d="M18 111q0 4 5 20l395 1288q14 47 63 68.5t107 21.5q59 0 108 -21.5t64 -68.5l395 -1288q4 -16 4 -20q0 -25 -16.5 -44.5t-41 -35t-54 -23.5t-56.5 -8q-35 0 -58.5 12.5t-31.5 40.5l-78 273h-469l-78 -273q-8 -29 -31.5 -41t-58.5 -12q-27 0 -56.5 8t-54 22.5t-41 35 t-16.5 45.5zM410 535h356l-178 628z" />
<glyph unicode="B" horiz-adv-x="1150" d="M123 82v1331q0 41 36 62.5t81 21.5h395q80 0 154.5 -15.5t131 -55.5t91.5 -110.5t35 -178.5q0 -127 -46.5 -209t-128.5 -117q47 -18 86 -44t67 -64.5t43 -94t15 -131.5v-43q0 -121 -31.5 -202.5t-87 -134t-130 -75t-160.5 -22.5h-434q-53 0 -85 24.5t-32 57.5zM387 233 h231q94 0 146.5 53.5t52.5 170.5v32q0 121 -52 169.5t-147 48.5h-231v-474zM387 915h229q84 0 124 49.5t40 127.5q0 80 -44 126t-122 46h-227v-349z" />
<glyph unicode="C" horiz-adv-x="1126" d="M109 457v571q0 129 37.5 218t102 144.5t150.5 81t183 25.5q106 0 196 -27.5t154.5 -78t100.5 -123t36 -160.5q0 -80 -32.5 -105.5t-100.5 -25.5q-57 0 -94 18.5t-39 65.5q-2 25 -8.5 58.5t-28 66.5t-62 55.5t-114.5 22.5q-104 0 -159.5 -57.5t-55.5 -178.5v-571 q0 -121 56 -178.5t163 -57.5q70 0 110.5 22.5t61 55.5t28 71t9.5 70q4 47 41 65.5t90 18.5q70 0 102.5 -26.5t32.5 -104.5q0 -92 -36 -167.5t-101.5 -128t-155.5 -81t-196 -28.5q-96 0 -182.5 25.5t-151 81t-101 144.5t-36.5 218z" />
<glyph unicode="D" horiz-adv-x="1187" d="M123 82v1333q0 33 31.5 57.5t85.5 24.5h362q100 0 188.5 -25.5t154 -81t102 -144.5t36.5 -218v-559q0 -129 -36.5 -218t-102 -144.5t-154 -81t-188.5 -25.5h-362q-53 0 -85 24.5t-32 57.5zM389 233h213q102 0 158.5 57.5t56.5 178.5v559q0 121 -56 178.5t-159 57.5h-213 v-1031z" />
<glyph unicode="E" horiz-adv-x="1085" d="M123 84v1329q0 41 36 62.5t81 21.5h729q43 0 63.5 -37t20.5 -78q0 -47 -21.5 -82.5t-62.5 -35.5h-580v-4100B4F763ABB " />
<glyph unicode="F" horiz-adv-x="1040" d="M123 84v1329q0 41 36 62.5t81 21.5h714q43 0 62.5 -37t19.5 -78q0 -47 -20.5 -82.5t-61.5 -35.5h-565v-41007491A1A02" />
<glyph unicode="G" horiz-adv-x="1155" d="M106 457v571q0 129 37 218t101.5 144.5t149.5 81t184 25.5q106 0 195 -26.5t154.5 -78t102.5 -124t37 -164.5q0 -78 -34 -102.5t-99 -24.5q-53 0 -92 18.5t-41 65.5q-2 37 -11.5 72.5t-33 64.5t-63.5 47.5t-105 18.5q-104 0 -159.5 -57.5t-55.5 -178.5v-571 q0 -121 55 -178.5t158 -57.5q100 0 157.5 57.5t57.5 178.5v121h-166q-41 0 -61.5 31.5t-20.5 72.5q0 39 20.5 71.5t61.5 32.5h348q41 0 62.5 -25.5t21.5 -60.5v-243q0 -129 -37 -218t-102.5 -144.5t-153.5 -81t-188 -25.5q-102 0 -189.5 25.5t-152 81t-101.5 144.5t-37 218z " />
<glyph unicode="H" horiz-adv-x="1239" d="M123 84v1331q0 43 41 62.5t92 19.5q49 0 91 -19.5t42 -62.5v-534h461v534q0 43 41 62.5t92 19.5q49 0 91 -0200BEEA75" />
<glyph unicode="I" horiz-adv-x="512" d="M123 84v1331q0 43 41 62.5t92 19.5q49 0 91 -19.5t42 -62.5v-1331q0 -41 -42 -62.5t-91 -21.5q-51 0 -92 21.5t-41 62.5z" />
<glyph unicode="J" horiz-adv-x="1103" d="M27 395q0 78 32.5 103.5t100.5 25.5q53 0 91 -17.5t42 -66.5q2 -39 11 -77.5t32.5 -70.5t64.5 -51.5t103 -0B10486A38" />
<glyph unicode="K" horiz-adv-x="1130" d="M123 84v1331q0 43 41 62.5t92 19.5q49 0 91 -19.5t42 -62.5v-559l442 602q29 39 74 39q25 0 52.5 -12t50 -0CA017AAE7" />
<glyph unicode="L" horiz-adv-x="991" d="M123 84v1331q0 43 41 62.5t92 19.5q49 0 91 -19.5t42 -62.5v-1182h500q41 0 60.5 -35.5t19.5 -80.5q0 -43 -19.5 -80t-60.5 -37h-649q-45 0 -81 21.5t-36 62.5z" />
<glyph unicode="M" horiz-adv-x="1431" d="M123 84v1280q0 74 41 103.5t92 29.5q37 0 63.5 -5t50 -20.5t46 -43t47.5 -72.5l252 -459l252 459q25 45 4703ABA22ABC" />
<glyph unicode="N" horiz-adv-x="1239" d="M123 84v1329q0 43 41 63.5t92 20.5q37 0 63.5 -5t48 -20.5t42 -43t45.5 -72.5l395 -764v823q0 43 41 62.5t0900CC7A87 " />
<glyph unicode="O" horiz-adv-x="1171" d="M106 457v571q0 129 37 218t101.5 144.5t151.5 81t190 25.5q100 0 188 -25.5t153.5 -81t102.5 -144.5t37 -218v-571q0 -129 -37 -218t-102.5 -144.5t-153.5 -81t-188 -25.5q-102 0 -189.5 25.5t-152 81t-101.5 144.5t-37 218zM373 457q0 -123 55 -179.5t158 -56.5 q100 0 157.5 56.5t57.5 179.5v571q0 123 -57.5 179.5t-157.5 56.5q-102 0 -157.5 -56.5t-55.5 -179.5v-571z" />
<glyph unicode="P" horiz-adv-x="1140" d="M123 84v1331q0 33 26.5 57.5t73.5 24.5h412q98 0 182 -24.5t147.5 -80t99.5 -143.5t36 -213v-12q0 -127 -37 -215t-102.5 -143.5t-153.5 -81t-189 -25.5h-229v-475q0 -41 -42 -62.5t-91 -21.5q-51 0 -92 21.5t-41 62.5zM389 768h229q100 0 158 57.5t58 178.5v24 q0 121 -57.5 178.5t-158.5 57.5h-229v-496z" />
<glyph unicode="Q" horiz-adv-x="1171" d="M106 457v571q0 129 37 218t101.5 145.5t151.5 81t190 24.5q100 0 188 -24.5t153.5 -81t102.5 -145.5t37 -218v-571q0 -115 -29.5 -198t-83 -139.5t-126 -87t-158.5 -38.5v-133q0 -41 -25.5 -62.5t-58.5 -21.5t-59.5 21.5t-26.5 62.5v133q-86 8 -158 38.5t-124 86 t-82 139.5t-30 199zM373 457q0 -178 127 -219v108q0 43 26.5 62.5t59.5 19.5t58.5 -19.5t25.5 -62.5v-108q61 20 96 73.5t35 145.5v571q0 121 -57.5 178.5t-157.5 57.5q-102 0 -157.5 -57.5t-55.5 -178.5v-571z" />
<glyph unicode="R" horiz-adv-x="1167" d="M123 84v1331q0 33 23.5 57.5t62.5 24.5h405q100 0 188.5 -21.5t155 -70.5t104.5 -131t38 -205q0 -176 -77 -275.5t-192 -134.5l269 -497q6 -8 8 -17.5t2 -15.5q0 -25 -15.5 -50.5t-39 -45t-53 -31.5t-58.5 -12t-52.5 16.5t-39.5 46.5l-291 565h-172v-534q0 -41 -41 -62.5 t-92 -21.5q-49 0 -91 21.5t-42 62.5zM389 827h225q100 0 160 48.5t60 168.5q0 121 -59.5 170.5t-160.5 49.5h-225v-437z" />
<glyph unicode="S" horiz-adv-x="1069" d="M49 236q0 20 9.5 45.5t25.5 47t36.5 36t45.5 14.5q31 0 60.5 -24.5t67.5 -54.5t90 -54.5t130 -24.5q92 0 160.5 43t68.5 135q0 76 -49 124t-121.5 86t-157.5 73t-158 87t-122 130t-49 199q0 115 45 192.5t115.5 125.5t160 69.5t177.5 21.5q45 0 111.5 -6t128 -24.5 t105.5 -50t44 -83.5q0 -18 -6 -41.5t-19.5 -46t-34 -38t-47.5 -15.5q-25 0 -47 12.5t-53 26.5t-75 26.5t-107 12.5q-111 0 -171.5 -42t-60.5 -116q0 -63 49.5 -103t122 -73t157.5 -68.5t157.5 -92t122 -141.5t49.5 -218q0 -111 -37 -193.5t-101.5 -138t-153.5 -84 t-196 -28.5q-100 0 -187 22.5t-150.5 59t-99.5 81.5t-36 91z" />
<glyph unicode="T" horiz-adv-x="1081" d="M25 1378q0 43 20.5 81t63.5 38h866q43 0 63.5 -38t20.5 -81q0 -47 -21.5 -84t-62.5 -37h-299v-1173q0 -41 04023EAA79" />
<glyph unicode="U" horiz-adv-x="1216" d="M117 457v958q0 43 41 62.5t92 19.5q49 0 91 -19.5t42 -62.5v-958q0 -121 59.5 -178.5t165.5 -57.5t166 57.5t60 178.5v958q0 43 40.5 62.5t92.5 19.5q49 0 91 -19.5t42 -62.5v-958q0 -129 -38 -218t-104.5 -144.5t-156.5 -81t-193 -25.5q-104 0 -193 25.5t-155.5 81 t-104.5 144.5t-38 218z" />
<glyph unicode="V" d="M18 1386q0 25 16.5 45.5t41 35t54.5 22.5t56 8q35 0 58.5 -12t31.5 -41l314 -1110l311 1110q8 29 31.5 41t58.5 12q27 0 56.5 -8t54 -23.5t41 -35t16.5 -44.5q0 -4 -4 -20l-393 -1288q-14 -47 -63.5 -68.5t-108.5 -21.5t-107.5 21.5t-64.5 68.5l-395 1288z" />
<glyph unicode="W" horiz-adv-x="1808" d="M18 1391q0 23 16.5 42t41 33.5t54.5 22.5t58 8q31 0 55.5 -12t32.5 -41l324 -1110l174 713q10 39 48 56t83 17q43 0 81 -17.5t48 -55.5l174 -713l324 1110q8 29 32.5 41t55.5 12q29 0 58.5 -8t54 -22.5t41 -34t16.5 -41.5q0 -12 -4 -25l-406 -1288q-16 -47 -65 -68.5 t-109 -21.5q-57 0 -108 21.5t-62 68.5l-131 553l-133 -553q-10 -47 -61.5 -68.5t-108.5 -21.5q-59 0 -109.5 21.5t-64.5 68.5l-405 1288q-4 12 -5 25z" />
<glyph unicode="X" horiz-adv-x="1148" d="M27 123q0 20 16 49l354 578l-342 575q-18 31 -18 57q0 27 16.5 49.5t41 40t54 26.5t58.5 9q31 0 52.5 -15t0E839E1A6F" />
<glyph unicode="Y" horiz-adv-x="1175" d="M18 1386q0 25 17.5 45.5t44 35t57.5 22.5t58 8q33 0 50 -12t31 -41l312 -592l313 592q14 27 30.5 40t49.5 13q27 0 57.5 -8t57 -22.5t44 -35t17.5 -45.5q0 -4 -1 -11t-5 -15l-422 -733q-8 -12 -8 -27v-516q0 -41 -41 -62.5t-92 -21.5q-49 0 -91 21.5t-42 62.5v516 q0 16 -6 27l-424 733q-6 14 -7 26z" />
<glyph unicode="Z" horiz-adv-x="1069" d="M29 74q0 45 28 92l609 1098h-519q-41 0 -61 34.5t-20 81.5q0 43 19 80t62 37h779q41 0 60.5 -20.5t19.5 -505FAF76ADF" />
<glyph unicode="[" horiz-adv-x="698" d="M115 41v1448q0 41 35.5 62.5t80.5 21.5h353q43 0 62.5 -37t19.5 -78q0 -47 -21.5 -83t-60.5 -36h-203v-1140A69B13A61" />
<glyph unicode="\" horiz-adv-x="757" d="M39 1456q0 35 29.5 62.5t70.5 27.5q25 0 46.5 -12t31.5 -41l498 -1376q4 -8 4 -25q0 -35 -28.5 -64.5t-69.5 -29.5q-59 0 -80 57l-498 1372q-2 8 -3 14.5t-1 14.5z" />
<glyph unicode="]" horiz-adv-x="700" d="M33 72q0 47 21.5 82.5t62.5 35.5h202v1149h-202q-41 0 -62.5 36t-21.5 83q0 41 20.5 78t63.5 37h350q45 0 0FB365AABB" />
<glyph unicode="^" horiz-adv-x="583" d="M0 1262q0 23 10 43t35 32l213 115q16 10 35 10q14 0 35 -10l213 -113q23 -14 33 -35.5t10 -43.5q0 -31 -160E8ABB7A63" />
<glyph unicode="_" horiz-adv-x="647" d="M-86 -111q0 47 22.5 79t59.5 32h655q33 0 59.5 -31.5t26.5 -79.5q0 -49 -26.5 -78.5t-59.5 -29.5h-655q-37 0 -59.5 29.5t-22.5 78.5z" />
<glyph unicode="`" horiz-adv-x="413" d="M0 1362q0 35 23.5 67.5t58.5 32.5q6 0 12 -1t15 -3l270 -131q35 -18 35 -63q0 -35 -23.5 -68t-58.5 -33q-8 0 -14.5 2t-14.5 6l-266 129q-20 10 -28.5 26.5t-8.5 35.5z" />
<glyph unicode="a" horiz-adv-x="964" d="M45 254q0 88 35 146.5t97.5 92t150.5 48t194 14.5h84v27q0 33 -9 66.5t-30.5 60t-55.5 44t-85 17.5q-59 0 076E03CA20" />
<glyph unicode="b" horiz-adv-x="1062" d="M104 84v1374q0 37 36 59.5t93 22.5q55 0 95.5 -22.5t40.5 -59.5v-629q33 59 99.5 107.5t162.5 48.5q76 0 142.5 -32.5t115.5 -90t77.5 -132.5t28.5 -161v-168q0 -82 -29.5 -157.5t-78.5 -134t-113.5 -93t-136.5 -34.5q-49 0 -93 13t-82 35.5t-66.5 52.5t-43.5 60v-59 q0 -31 -34.5 -57.5t-84.5 -26.5q-57 0 -93 26.5t-36 57.5zM369 365q0 -16 14 -42t38.5 -50.5t58.5 -42t73 -17.5q37 0 69.5 16.5t56 43t38 60.5t14.5 68v168q0 35 -14.5 68t-39 59.5t-57 42t-69.5 15.5q-33 0 -65.5 -12.5t-58.5 -37t-42 -58.5t-16 -77v-204z" />
<glyph unicode="c" horiz-adv-x="888" d="M70 401v164q0 88 25.5 165t79.5 133.5t137 89t200 32.5q72 0 132.5 -13.5t103.5 -36t67.5 -51t24.5 -59.5q093407FA80" />
<glyph unicode="d" horiz-adv-x="1064" d="M68 401v168q0 86 28.5 161t77.5 132.5t115.5 90t142.5 32.5q96 0 163 -48t101 -108v629q0 37 39 59.5t94 22.5q57 0 94.5 -22.5t37.5 -59.5v-1374q0 -31 -37 -57.5t-95 -26.5q-49 0 -83.5 26.5t-34.5 57.5v59q-31 -63 -109 -112t-176 -49q-72 0 -136.5 34.5t-113.5 93 t-78.5 134t-29.5 157.5zM332 401q0 -35 14 -68.5t39 -60t56.5 -43t68.5 -16.5q39 0 72.5 17.5t59.5 42t40 50t14 42.5v204q0 43 -16 77t-43 58.5t-59.5 37t-65.5 12.5q-37 0 -69.5 -15.5t-57.5 -42t-39 -59.5t-14 -68v-168z" />
<glyph unicode="e" horiz-adv-x="991" d="M66 401v174q0 82 34.5 157t95 131.5t142.5 89t176 32.5q84 0 161 -28.5t135 -79t92 -121t34 -156.5q0 -66 -16.5 -102.5t-44 -54t-61.5 -21.5t-69 -4h-415v-31q0 -90 65.5 -143.5t173.5 -53.5q51 0 88 12.5t66 27t52.5 26.5t45.5 12q23 0 41.5 -12t31.5 -30.5t20.5 -39 t7.5 -34.5q0 -27 -26 -56.5t-73 -55.5t-113.5 -42t-148.5 -16q-109 0 -200 29.5t-156.5 85t-102 133t-36.5 171.5zM330 573h299q33 0 46 10.5t13 45.5q0 72 -53 117t-127 45q-70 0 -124 -43t-54 -117v-58z" />
<glyph unicode="f" horiz-adv-x="696" d="M104 82v1057q0 86 29 159.5t78 127t114.5 84t139.5 30.5h121q51 0 75.5 -35t24.5 -75q0 -43 -24.5 -78t-7508DDFC2A4E" />
<glyph unicode="g" horiz-adv-x="962" d="M31 -164q0 78 43 131t106 86q-39 18 -62.5 49t-23.5 82q0 57 29 93t76 67q-59 47 -93 113.5t-34 146.5v43q0 74 28.5 136.5t80.5 107.5t126 69.5t164 24.5q68 0 127 -15.5t107 -43.5q35 82 65.5 110.5t58.5 28.5q51 0 78 -28.5t27 -53.5q0 -18 -9.5 -32.5t-23.5 -24.5 q-20 -14 -47 -31.5t-49 -46.5q72 -84 72 -201v-43q0 -74 -30 -136t-84 -108.5t-129 -72t-163 -25.5q-76 0 -133 19q-25 -20 -25 -41q0 -33 46.5 -47.5t114 -23.5t148 -21.5t148.5 -42t114 -85t46 -151.5q0 -86 -38 -146.5t-99.5 -99.5t-142.5 -57.5t-167 -18.5 q-90 0 -172 19.5t-144.5 56.5t-99 90.5t-36.5 122.5zM281 -137q0 -70 58 -108t140 -38t138.5 39t56.5 105q0 43 -25.5 68.5t-66.5 41t-91.5 21.5t-99.5 12q-49 -23 -79.5 -58.5t-30.5 -82.5zM328 606q0 -78 37.5 -131t109.5 -53q68 0 107 51t39 131v43q0 74 -38 126t-110 52 t-108.5 -52t-36.5 -126v-41z" />
<glyph unicode="h" horiz-adv-x="1073" d="M104 84v1374q0 37 36 59.5t96 22.5q53 0 93 -22.5t40 -59.5v-629q29 59 94 107.5t164 48.5q70 0 134 -32.5029FCC7AFE" />
<glyph unicode="i" horiz-adv-x="468" d="M88 1319q0 53 42 91t103 38q59 0 101.5 -38t42.5 -91q0 -51 -42 -90t-102 -39q-61 0 -103 39t-42 90zM102 03DB6FAA82" />
<glyph unicode="j" horiz-adv-x="473" d="M-78 -344q0 53 30 84t71 31q55 0 68 46t13 117v957q0 37 37 59.5t92 22.5q57 0 96.5 -22.5t39.5 -59.5v-950FFBADFAE6" />
<glyph unicode="k" horiz-adv-x="1007" d="M104 84v1374q0 37 36 59.5t93 22.5q55 0 95.5 -22.5t40.5 -59.5v-858l385 363q25 20 53 20q20 0 43.5 -11t0E35CB1A12" />
<glyph unicode="l" horiz-adv-x="505" d="M121 84v1374q0 37 36 59.5t95 22.5q53 0 93 -22.5t40 -59.5v-1374q0 -31 -40 -57.5t-93 -26.5q-59 0 -95 26.5t-36 57.5z" />
<glyph unicode="m" horiz-adv-x="1644" d="M102 84v807q0 37 36 59.5t95 22.5q47 0 82 -22.5t35 -59.5v-62q35 59 101.5 107.5t169.5 48.5q88 0 155.5 02FE83AA5D" />
<glyph unicode="n" horiz-adv-x="1071" d="M102 84v807q0 37 36 59.5t95 22.5q47 0 82 -22.5t35 -59.5v-62q29 59 100.5 107.5t174.5 48.5q70 0 134 -30558F3FACE" />
<glyph unicode="o" horiz-adv-x="1019" d="M66 401v168q0 82 34.5 158t95 133.5t141.5 91t173 33.5q88 0 169 -32.5t142.5 -90t97 -132.5t35.5 -161v-168q0 -82 -35.5 -157.5t-97 -134t-142.5 -93t-169 -34.5q-90 0 -171 34.5t-141.5 92t-96 133t-35.5 159.5zM330 401q0 -37 14 -70.5t39 -59t57.5 -42t69.5 -16.5 t69.5 16.5t57.5 42t39 59.5t14 70v168q0 35 -14 68t-39 59.5t-57.5 42t-69.5 15.5t-69.5 -15.5t-57.5 -42t-39 -59.5t-14 -68v-168z" />
<glyph unicode="p" horiz-adv-x="1062" d="M104 -369v1260q0 37 36 59.5t89 22.5t88 -22.5t35 -59.5v-62q35 59 106.5 107.5t170.5 48.5q76 0 143.5 -32.5t116.5 -90t77.5 -132.5t28.5 -161v-168q0 -82 -29.5 -157.5t-78.5 -134t-113.5 -93t-136.5 -34.5q-92 0 -166 49t-102 112v-512q0 -33 -40 -58.5t-96 -25.5 q-57 0 -93 26t-36 58zM369 365q0 -16 13 -42t37.5 -50.5t57.5 -42t72 -17.5q37 0 69.5 16.5t57 43t40 60.5t15.5 68v168q0 35 -14.5 68t-40 59.5t-59 42t-72.5 15.5q-33 0 -64.5 -12.5t-56.5 -37t-40 -58.5t-15 -77v-204z" />
<glyph unicode="q" horiz-adv-x="1064" d="M68 401v168q0 86 28.5 161t77.5 132.5t116.5 90t145.5 32.5q98 0 169 -48t106 -108v62q0 37 35 59.5t88 22.5t90 -22.5t37 -59.5v-1260q0 -33 -37 -58.5t-95 -25.5q-55 0 -94 26t-39 58v512q-31 -63 -104.5 -112t-165.5 -49q-72 0 -136.5 34.5t-113.5 93t-78.5 134 t-29.5 157.5zM332 401q0 -35 15 -68.5t40 -60t57.5 -43t69.5 -16.5q39 0 73 17.5t58.5 42t37.5 50t13 42.5v204q0 43 -15 77t-41 58.5t-57.5 37t-64.5 12.5q-39 0 -72.5 -15.5t-59.5 -42t-40 -59.5t-14 -68v-168z" />
<glyph unicode="r" horiz-adv-x="772" d="M102 84v807q0 37 36 59.5t93 22.5q49 0 84 -22.5t35 -59.5v-84q14 33 40 64.5t58.5 57t71.5 41t82 15.5h640B7180AA6B" />
<glyph unicode="s" horiz-adv-x="847" d="M47 158q0 16 6 36.5t18.5 38t29 29.5t34.5 12q23 0 44.5 -14t52 -31.5t72.5 -32t108 -14.5q90 0 119.5 29t004CAEAA04" />
<glyph unicode="t" horiz-adv-x="710" d="M100 332v993q0 37 42 59.5t89 22.5q51 0 92.5 -22.5t41.5 -59.5v-352h241q33 0 50.5 -31t17.5 -65q0 -37 -17.5 -67t-50.5 -30h-241v-448q0 -59 24.5 -84t89.5 -25h80q57 0 85 -34.5t28 -75.5q0 -43 -28 -78t-85 -35h-80q-186 0 -282.5 79t-96.5 253z" />
<glyph unicode="u" horiz-adv-x="1073" d="M92 397v492q0 31 39 57.5t94 26.5q53 0 92 -26.5t39 -57.5v-492q0 -35 14.5 -67.5t39 -59t57.5 -42t70 -150218DA6AA6" />
<glyph unicode="v" horiz-adv-x="985" d="M12 872q0 23 18.5 43.5t45 36t57.5 24.5t55 9q27 0 47.5 -11t30.5 -34l228 -594l227 590q18 49 76 49q20 003EB4C8A42" />
<glyph unicode="w" horiz-adv-x="1419" d="M14 874q0 25 17.5 44.5t43 34t55.5 22.5t56 8q27 0 47.5 -10t28.5 -33l205 -582l154 506q10 35 34.5 44.5t55.5 9.5q29 0 54.5 -9.5t35.5 -44.5l151 -508l207 584q16 43 76 43q25 0 54.5 -8t55 -22.5t43 -35t17.5 -45.5q0 -23 -8 -36l-316 -811q-10 -27 -39.5 -37.5 t-64.5 -10.5q-39 0 -68.5 12.5t-40.5 35.5l-157 446l-156 -444q-10 -25 -42 -37.5t-71 -12.5q-33 0 -62.5 10.5t-39.5 39.5l-315 809q-10 20 -11 38z" />
<glyph unicode="x" horiz-adv-x="962" d="M43 113q0 25 16 45l242 338l-225 313q-4 6 -10.5 18.5t-6.5 24.5q0 23 17.5 46.5t44 43t57.5 31.5t58 12q10A7E88BA36" />
<glyph unicode="y" horiz-adv-x="974" d="M12 -340q0 45 15.5 78t52.5 33q33 0 81 12t93 46t79 92.5t40 150.5l-353 753q-8 20 -8 35q0 27 18.5 49.5t09821D0A2D" />
<glyph unicode="z" horiz-adv-x="894" d="M43 94q0 31 14.5 58.5t30.5 48.5l404 557h-355q-33 0 -55.5 30.5t-22.5 77.5q0 43 21.5 75t56.5 32h602q3506DC745AA3" />
<glyph unicode="{" horiz-adv-x="739" d="M43 791q0 47 19.5 65t42 26.5t42 17.5t19.5 40q0 14 -5 51t-11.5 80t-11.5 84t-5 66q0 70 37 133t98.5 112034FF45A27" />
<glyph unicode="|" horiz-adv-x="493" d="M115 41v1450q0 35 37 58.5t94 23.5q55 0 94 -23.5t39 -58.5v-1450q0 -31 -39 -57.5t-94 -26.5q-57 0 -94 26.5t-37 57.5z" />
<glyph unicode="}" horiz-adv-x="739" d="M31 74q0 16 4 35.5t13 36t25.5 27.5t41.5 11q29 0 67.5 6.5t73.5 21.5t59.5 41t24.5 66q0 18 -5 67.5t-11.5 106t-11.5 106.5t-5 69q0 45 26.5 78.5t47.5 39.5q-18 6 -46 42t-28 79q0 18 5 56t11.5 81t11.5 82t5 60q0 43 -23.5 73.5t-57.5 50t-74 29t-70 9.5 q-41 0 -62.5 34.5t-21.5 73.5q0 20 7 41t23.5 38t45 27.5t71.5 10.5q80 0 157 -28.5t137 -78t97 -113t37 -132.5q0 -25 -5 -66t-11 -84t-11.5 -80t-5.5 -51q0 -31 19.5 -40t42 -17.5t42 -26.5t19.5 -65t-19.5 -65.5t-42 -28t-42 -19.5t-19.5 -41q0 -16 5.5 -62.5 t11.5 -101.5t11 -106.5t5 -77.5q0 -74 -37 -134.5t-96 -103.5t-136 -67.5t-157 -24.5q-150 0 -149 115z" />
<glyph unicode="~" horiz-adv-x="841" d="M72 504q0 47 20.5 74.5t49 42t58 18.5t48.5 4q45 0 79.5 -9t68.5 -20.5t68 -20.5t75 -9q33 0 57.5 7t42.5 0D4C5EBAE3" />
<glyph unicode="&#xa1;" horiz-adv-x="452" d="M86 1366q0 55 41 97t98 42q59 0 99.5 -42t40.5 -97q0 -59 -40.5 -100t-99.5 -41q-57 0 -98 41t-41 100zM9801C95A3ABA" />
<glyph unicode="&#xa2;" horiz-adv-x="884" d="M49 739v37q0 82 21.5 153.5t67.5 127t116 91.5t168 46v158q0 33 22.5 52t55.5 19q31 0 54.5 -19.5t23.5 -51.5v-162q109 -14 177 -56t68 -96q0 -18 -8 -39.5t-21.5 -40t-33 -29.5t-43.5 -11q-12 0 -24.5 6t-29 15t-37 17.5t-48.5 14.5v-424q29 6 49 15t35.5 18.5 t27.5 16.5t27 7q53 0 83.5 -39t30.5 -80q0 -27 -19 -52t-54 -46.5t-81 -38t-99 -24.5v-168q0 -29 -24 -52.5t-54 -23.5q-33 0 -55.5 23.5t-22.5 52.5v166q-98 8 -168 43.5t-116 91t-67.5 127t-21.5 155.5zM281 739q0 -78 33.5 -128t107.5 -68v428q-74 -18 -107.5 -67.5 t-33.5 -127.5v-37z" />
<glyph unicode="&#xa3;" horiz-adv-x="1107" d="M43 117q0 45 19.5 80.5t60.5 35.5h108l72 517h-115q-33 0 -50 29.5t-17 66.5q0 35 17.5 65.5t49.5 30.5h140C5A742AF6" />
<glyph unicode="&#xa4;" horiz-adv-x="925" d="M98 678q0 14 13 27l57 53q-33 45 -50.5 98t-17.5 111q0 57 17.5 110t48.5 99l-53 51q-10 10 -11 26q0 23 17.5 40.5t40.5 17.5q12 0 26 -11l50 -47q47 39 104 60.5t123 21.5q61 0 118.5 -21.5t104.5 -58.5l51 48q12 10 29 10q23 0 40 -17.5t17 -40.5q0 -14 -12 -26 l-53 -51q33 -43 51 -96.5t18 -112.5t-18 -113.5t-53 -99.5l55 -51q12 -12 12 -27q0 -23 -17.5 -40t-39.5 -17q-16 0 -29 10l-51 47q-47 -41 -104.5 -62.5t-118.5 -21.5q-63 0 -120.5 22.5t-106.5 63.5l-52 -49q-12 -10 -28 -10q-23 0 -40.5 17t-17.5 40zM246 967 q0 -43 17.5 -84t46 -73t68.5 -50.5t85 -18.5t85 18.5t69.5 50.5t47 72t17.5 83t-17.5 82.5t-46 71.5t-69.5 50.5t-86 18.5t-85 -18.5t-68.5 -49t-46 -70.5t-17.5 -83z" />
<glyph unicode="&#xa5;" horiz-adv-x="1153" d="M43 1399q0 20 15.5 39.5t38 35t51 24.5t53.5 9q29 0 45 -17t30 -44l299 -555l302 555q14 27 30.5 44t44.5 0B1C8BBABB" />
<glyph unicode="&#xa6;" horiz-adv-x="489" d="M113 41v512q0 37 37 60.5t94 23.5q55 0 94 -23.5t39 -60.5v-512q0 -31 -39 -57.5t-94 -26.5q-57 0 -94 26.0E58755AB9" />
<glyph unicode="&#xa7;" horiz-adv-x="976" d="M82 203q0 61 29.5 82.5t83.5 21.5q66 0 90 -22.5t24 -51.5q0 -23 5 -50t21.5 -49.5t47.5 -38t82 -15.5q90 0 130 42t40 105q0 61 -40 98t-101.5 66t-131 59.5t-131 80t-101.5 125t-40 198.5v219q0 129 39 211t97.5 129t129 65.5t133.5 18.5q94 0 164 -29.5t116 -78 t68.5 -109.5t22.5 -125q0 -63 -26.5 -83.5t-73.5 -20.5q-66 0 -89.5 26.5t-23.5 61.5q0 23 -6 47t-22.5 45.5t-45 36t-73.5 14.5q-78 0 -122 -42t-44 -112q0 -61 42 -98t105.5 -65.5t136 -59.5t136 -80t105.5 -125.5t42 -197.5v-219q0 -125 -39 -206t-100.5 -129t-136 -67.5 t-144.5 -19.5q-98 0 -173 30.5t-125 78.5t-75.5 109.5t-25.5 123.5zM309 801q0 -82 43 -126t102.5 -73t123 -51.5t106.5 -58.5v43q0 82 -43 126t-102.5 72.5t-123 51t-106.5 59.5v-43z" />
<glyph unicode="&#xa8;" horiz-adv-x="514" d="M0 1290q0 43 30.5 75t73.5 32t73 -32t30 -75t-30 -75.5t-73 -32.5t-73.5 32.5t-30.5 75.5zM305 1290q0 43 075D796A77" />
<glyph unicode="&#xa9;" horiz-adv-x="1413" d="M78 733q0 172 59.5 298t151.5 209t204.5 123t219.5 40q109 0 219 -41t200.5 -123t146.5 -207t56 -291q0 -10805587A94" />
<glyph unicode="&#xaa;" horiz-adv-x="684" d="M53 1067q0 59 23.5 98t65.5 61.5t100.5 32t130.5 9.5h55v18q0 45 -26.5 86t-92.5 41q-41 0 -65.5 -7t-40 -0DF8A33AF0" />
<glyph unicode="&#xab;" horiz-adv-x="1021" d="M49 565q0 25 13.5 45.5t33.5 59.5l150 278q18 35 76 35q33 0 62.5 -13.5t52 -32.5t35.5 -43t13 -44q0 -16 0A48C7EA1B" />
<glyph unicode="&#xac;" horiz-adv-x="1017" d="M66 492q0 47 22.5 78.5t58.5 31.5h684q33 0 60 -31.5t27 -78.5v-279q0 -33 -39 -58.5t-95 -25.5q-57 0 -94 25.5t-37 58.5v170h-506q-37 0 -59 30t-22 79z" />
<glyph unicode="&#xad;" horiz-adv-x="968" d="M74 492q0 47 22.5 78.5t59.5 31.5h655q33 0 59.5 -31.5t26.5 -78.5q0 -49 -26.5 -79t-59.5 -30h-655q-37 0 -59.5 30t-22.5 79z" />
<glyph unicode="&#xae;" horiz-adv-x="1413" d="M78 733q0 172 59.5 298t151.5 209t204.5 123t219.5 40q109 0 219 -41t200.5 -123t146.5 -207t56 -291q0 -172 -59 -298t-151.5 -208.5t-205 -122.5t-219.5 -40q-109 0 -219 41t-200.5 122.5t-146.5 206.5t-56 291zM205 733q0 -117 34.5 -214t99 -168.5t156 -111.5 t205.5 -40q113 0 206 40t161 111.5t104.5 170.5t36.5 220q0 117 -34.5 214.5t-99 169t-157 111.5t-204.5 40q-113 0 -206 -40t-160.5 -111.5t-104.5 -171t-37 -220.5zM487 416v665q0 18 12.5 31.5t32.5 15.5h201q49 0 92 -11t76 -36.5t52.5 -68.5t19.5 -105q0 -88 -38 -139 t-93 -72l125 -243q2 -4 2 -15q0 -29 -24.5 -51t-51.5 -22q-29 0 -43 36l-135 273h-90v-258q0 -23 -18.5 -36t-47.5 -13q-27 0 -49.5 12t-22.5 37zM625 791h108q47 0 76 24.5t29 77.5q0 63 -29 88t-76 25h-108v-215z" />
<glyph unicode="&#xaf;" horiz-adv-x="585" d="M0 1335q0 37 22.5 62.5t59.5 25.5h420q33 0 58.5 -25.5t25.5 -62.5q0 -39 -25.5 -62.5t-58.5 -23.5h-420q-37 0 -59.5 23.5t-22.5 62.5z" />
<glyph unicode="&#xb0;" horiz-adv-x="817" d="M45 1204q0 74 28.5 140.5t78 117.5t116 81t140.5 30t139 -30t115.5 -80t80 -116.5t29.5 -140.5t-29.5 -142.5t-80 -119.5t-116 -82t-138.5 -31q-74 0 -139.5 31t-115 82t-79 118.5t-29.5 141.5zM190 1204q0 -43 17.5 -84t46.5 -72.5t68.5 -50t85.5 -18.5q45 0 84.5 18.5 t69.5 50t47.5 71.5t17.5 83t-17.5 83t-46 72t-69.5 50t-86 18t-85 -18t-69 -49t-46.5 -71t-17.5 -83z" />
<glyph unicode="&#xb1;" horiz-adv-x="964" d="M72 174q0 47 22.5 79t59.5 32h655q33 0 58.5 -32t25.5 -79q0 -49 -25.5 -78.5t-58.5 -29.5h-655q-37 0 -5908E8455A67" />
<glyph unicode="&#xb2;" horiz-adv-x="659" d="M49 733v109q0 43 28.5 81t72 72.5t92.5 67.5t92 64.5t71.5 64.5t28.5 68q0 27 -23.5 53t-76.5 26q-41 0 -60724313ADF" />
<glyph unicode="&#xb3;" horiz-adv-x="673" d="M41 885q0 39 17.5 51t64.5 12q55 0 72.5 -13t17.5 -44q0 -37 35 -51.5t82 -14.5q66 0 92.5 23.5t26.5 77.50CFC1DFA27" />
<glyph unicode="&#xb4;" horiz-adv-x="413" d="M0 1264q0 45 35 63l270 131q8 2 14.5 3t12.5 1q35 0 58.5 -32.5t23.5 -67.5q0 -18 -8.5 -34.5t-28.5 -27.5l-266 -129q-8 -4 -14.5 -6t-14.5 -2q-35 0 -58.5 33t-23.5 68z" />
<glyph unicode="&#xb5;" horiz-adv-x="1060" d="M115 -369v1258q0 31 39 57.5t94 26.5q53 0 92 -26.5t39 -57.5v-502q0 -31 14.5 -61.5t40 -55t58 -41t69.5 -16.5t69 15.5t55.5 42t36.5 59t13 67.5v492q0 35 40 59.5t93 24.5q57 0 94 -24.5t37 -59.5v-492q0 -84 -34.5 -159.5t-94 -132t-139.5 -90t-172 -33.5 q-61 0 -115.5 22.5t-95.5 56.5v-430q0 -33 -30.5 -58.5t-73.5 -25.5q-55 0 -92 26t-37 58z" />
<glyph unicode="&#xb6;" horiz-adv-x="1136" d="M47 1051v24q0 115 31 196t85 131t128 72.5t158 22.5h475q33 0 58.5 -21.5t25.5 -62.5v-1331q0 -43 -26 -62.5t-58 -19.5q-33 0 -59.5 19.5t-26.5 62.5v1294h-168v-1292q0 -41 -27 -62.5t-59 -21.5q-33 0 -58.5 21.5t-25.5 62.5v543h-51q-84 0 -158 22.5t-128 73.5 t-85 132t-31 196z" />
<glyph unicode="&#xb7;" horiz-adv-x="421" d="M63 614q0 53 43.5 91t104.5 38t103 -37.5t42 -91.5q0 -53 -42 -92t-103 -39t-104.5 39t-43.5 92z" />
<glyph unicode="&#xb8;" horiz-adv-x="389" d="M0 -383q0 6 3 18.5t8 25.5t14.5 22.5t21.5 9.5q16 0 42 -14.5t77 -14.5q96 0 96 68q0 66 -98 75l-113 11l50493B98AEA" />
<glyph unicode="&#xb9;" horiz-adv-x="395" d="M14 1341q0 43 31 62l156 90q8 4 15 6t17 2q29 0 54.5 -15.5t25.5 -41.5v-711q0 -29 -27.5 -42t-60.5 -13q-03E0E42AAB" />
<glyph unicode="&#xba;" horiz-adv-x="704" d="M55 1165v113q0 55 23.5 106.5t63.5 89t93.5 60t114.5 22.5q59 0 113.5 -21.5t95.5 -59t64.5 -89t23.5 -108.5v-113q0 -55 -23.5 -105t-64.5 -89t-95 -62.5t-114 -23.5q-59 0 -112.5 23.5t-94.5 62.5t-64.5 89t-23.5 105zM231 1165q0 -47 35 -86t84 -39q51 0 86 39t35 86 v113q0 47 -35 85t-86 38q-49 0 -84 -38t-35 -85v-113z" />
<glyph unicode="&#xbb;" horiz-adv-x="1024" d="M72 285q0 14 6 26l137 256l-137 258q-6 8 -6 25q0 20 13 44t35.5 43t52.5 32.5t63 13.5q57 0 75 -35l150 -0DB0419A10" />
<glyph unicode="&#xbc;" horiz-adv-x="1361" d="M51 1341q0 43 31 62l156 90q8 4 15 6t17 2q29 0 54.5 -15.5t25.5 -41.5v-711q0 -29 -27.5 -42t-60.5 -13q-02921ADA2C" />
<glyph unicode="&#xbd;" horiz-adv-x="1339" d="M45 1341q0 43 31 62l155 90q8 4 15.5 6t17.5 2q29 0 54.5 -15.5t25.5 -41.5v-711q0 -29 -27.5 -42t-60.5 -0835609AC3" />
<glyph unicode="&#xbe;" horiz-adv-x="1636" d="M57 885q0 39 17.5 51t64.5 12q55 0 72.5 -13t17.5 -44q0 -37 35 -51.5t82 -14.5q66 0 92.5 23.5t26.5 77.50F5FEF0AE1" />
<glyph unicode="&#xbf;" horiz-adv-x="892" d="M51 334q0 80 29 144.5t68.5 114.5t79.5 86t65 54q37 29 57.5 58.5t30.5 61.5t12 70t2 83q0 29 20.5 51t82.5 22q53 0 74.5 -24.5t21.5 -89.5q0 -72 -11.5 -124.5t-29.5 -91t-41 -64.5t-43 -46q-27 -25 -61.5 -52.5t-65.5 -59t-52.5 -72.5t-21.5 -95q0 -86 58.5 -130 t152.5 -44q76 0 114 22.5t61.5 48.5t41 48.5t52.5 22.5t68.5 -24.5t33.5 -74.5q0 -37 -23.5 -78.5t-71.5 -78.5t-119 -60.5t-163 -23.5q-98 0 -176 26.5t-132 72.5t-84 109.5t-30 137.5zM356 1366q0 55 40 97t100 42q59 0 98 -42t39 -97q0 -59 -40 -100t-97 -41t-98.5 41 t-41.5 100z" />
<glyph unicode="&#xc0;" d="M18 111q0 4 5 20l395 1288q14 47 63 68.5t107 21.5q59 0 108 -21.5t64 -68.5l395 -1288q4 -16 4 -20q0 -25 -16.5 -44.5t-41 -35t-54 -23.5t-56.5 -8q-35 0 -58.5 12.5t-31.5 40.5l-78 273h-469l-78 -273q-8 -29 -31.5 -41t-58.5 -12q-27 0 -56.5 8t-54 22.5t-41 35 t-16.5 45.5zM352 1860q0 35 23.5 67.5t58.5 32.5q6 0 12.5 -1t14.5 -3l270 -131q35 -18 35 -64q0 -35 -23.5 -67.5t-58.5 -32.5q-8 0 -14 2t-15 6l-266 129q-20 10 -28.5 26.5t-8.5 35.5zM410 535h356l-178 628z" />
<glyph unicode="&#xc1;" d="M18 111q0 4 5 20l395 1288q14 47 63 68.5t107 21.5q59 0 108 -21.5t64 -68.5l395 -1288q4 -16 4 -20q0 -25037CE84A5E" />
<glyph unicode="&#xc2;" d="M18 111q0 4 5 20l395 1288q14 47 63 68.5t107 21.5q59 0 108 -21.5t64 -68.5l395 -1288q4 -16 4 -20q0 -25 -16.5 -44.5t-41 -35t-54 -23.5t-56.5 -8q-35 0 -58.5 12.5t-31.5 40.5l-78 273h-469l-78 -273q-8 -29 -31.5 -41t-58.5 -12q-27 0 -56.5 8t-54 22.5t-41 35 t-16.5 45.5zM295 1759q0 23 10 43.5t35 32.5l213 115q16 10 35 10q14 0 35 -10l213 -113q23 -14 33 -35.5t10 -44.5q0 -31 -16.5 -55.5t-41.5 -24.5q-12 0 -20 6l-213 115l-213 -115q-12 -6 -23 -6q-25 0 -41 24.5t-16 57.5zM410 535h356l-178 628z" />
<glyph unicode="&#xc3;" d="M18 111q0 4 5 20l395 1288q14 47 63 68.5t107 21.5q59 0 108 -21.5t64 -68.5l395 -1288q4 -16 4 -20q0 -25 -16.5 -44.5t-41 -35t-54 -23.5t-56.5 -8q-35 0 -58.5 12.5t-31.5 40.5l-78 273h-469l-78 -273q-8 -29 -31.5 -41t-58.5 -12q-27 0 -56.5 8t-54 22.5t-41 35 t-16.5 45.5zM238 1798q0 47 20.5 75t49 42t58 18t48.5 4q45 0 79.5 -9t68.5 -20.5t68 -20.5t75 -9q33 0 57 7t42.5 16.5t34 17.5t31.5 8q20 0 32.5 -10t21 -24.5t11.5 -29t3 -22.5q0 -47 -20.5 -74.5t-49 -42t-58.5 -18.5t-46 -4q-51 0 -88 9t-70 20.5t-63.5 20.5t-69.5 9 q-33 0 -56.5 -8t-43 -17.5t-35.5 -16.5t-33 -7q-20 0 -33.5 10.5t-20.5 24.5t-10 28.5t-3 22.5zM410 535h356l-178 628z" />
<glyph unicode="&#xc4;" d="M18 111q0 4 5 20l395 1288q14 47 63 68.5t107 21.5q59 0 108 -21.5t64 -68.5l395 -1288q4 -16 4 -20q0 -25040B493A24" />
<glyph unicode="&#xc5;" d="M18 111q0 4 5 20l395 1288q14 47 63 68.5t107 21.5q59 0 108 -21.5t64 -68.5l395 -1288q4 -16 4 -20q0 -250762231A63" />
<glyph unicode="&#xc6;" horiz-adv-x="1611" d="M117 94v934q0 129 36.5 218t99 144.5t147.5 81t184 25.5h911q45 0 64.5 -37t19.5 -78q0 -47 -21.5 -82.5t-62.5 -35.5h-467v-410h244q41 0 62.5 -33t21.5 -73q0 -35 -20.5 -69t-63.5 -34h-244v-412h467q41 0 62.5 -35.5t21.5 -82.5q0 -41 -19.5 -78t-64.5 -37h-616 q-45 0 -81 21.5t-36 62.5v561h-393v-551q0 -20 -4.5 -37.5t-18.5 -30t-40.5 -19.5t-69.5 -7q-66 0 -92.5 26.5t-26.5 67.5zM369 854h393v410h-178q-102 0 -158.5 -57.5t-56.5 -178.5v-174z" />
<glyph unicode="&#xc7;" horiz-adv-x="1126" d="M109 457v571q0 129 37.5 218t102 144.5t150.5 81t183 25.5q106 0 196 -27.5t154.5 -78t100.5 -123t36 -160.5q0 -80 -32.5 -105.5t-100.5 -25.5q-57 0 -94 18.5t-39 65.5q-2 25 -8.5 58.5t-28 66.5t-62 55.5t-114.5 22.5q-104 0 -159.5 -57.5t-55.5 -178.5v-571 q0 -121 56 -178.5t163 -57.5q70 0 110.5 22.5t61 55.5t28 71t9.5 70q4 47 41 65.5t90 18.5q70 0 102.5 -26.5t32.5 -104.5q0 -84 -29.5 -153.5t-85 -121.5t-131 -85t-168.5 -41l-30 -96q104 -4 153 -50.5t49 -107.5q0 -27 -10 -58.5t-35.5 -58.5t-66.5 -45t-103 -18 q-27 0 -57.5 3t-56 11t-43 18.5t-17.5 26.5q0 6 3 18.5t8.5 25.5t14.5 22.5t21 9.5q16 0 42 -14.5t77 -14.5q96 0 96 68q0 66 -98 75l-113 11l50 172q-90 4 -168 32.5t-136.5 84t-92 142.5t-33.5 208z" />
<glyph unicode="&#xc8;" horiz-adv-x="1083" d="M123 84v1329q0 41 36 62.5t81 21.5h729q43 0 63.5 -37t20.5 -78q0 -47 -21.5 -82.5t-62.5 -35.5h-580v-4100FAAD89AB3" />
<glyph unicode="&#xc9;" horiz-adv-x="1083" d="M123 84v1329q0 41 36 62.5t81 21.5h729q43 0 63.5 -37t20.5 -78q0 -47 -21.5 -82.5t-62.5 -35.5h-580v-4100096404AF9" />
<glyph unicode="&#xca;" horiz-adv-x="1085" d="M123 84v1329q0 41 36 62.5t81 21.5h729q43 0 63.5 -37t20.5 -78q0 -47 -21.5 -82.5t-62.5 -35.5h-580v-4100356922A8B" />
<glyph unicode="&#xcb;" horiz-adv-x="1085" d="M123 84v1329q0 41 36 62.5t81 21.5h729q43 0 63.5 -37t20.5 -78q0 -47 -21.5 -82.5t-62.5 -35.5h-580v-410h311q41 0 62.5 -33t21.5 -73q0 -35 -20.5 -69t-63.5 -34h-311v-412h580q41 0 62.5 -35.5t21.5 -82.5q0 -41 -20.5 -78t-63.5 -37h-729q-45 0 -81 21.5t-36 62.5z M336 1788q0 43 30.5 74.5t73.5 31.5t73 -31.5t30 -74.5t-30 -76t-73 -33t-73.5 33t-30.5 76zM641 1788q0 43 31 74.5t76 31.5q41 0 71.5 -31.5t30.5 -74.5t-31 -76t-71 -33q-45 0 -76 33t-31 76z" />
<glyph unicode="&#xcc;" horiz-adv-x="512" d="M35 1860q0 35 23.5 67.5t58.5 32.5q6 0 12 -1t14 -3l271 -131q35 -18 35 -64q0 -35 -24 -67.5t-58 -32.5q-011F00DAE1" />
<glyph unicode="&#xcd;" horiz-adv-x="512" d="M63 1761q0 45 35 64l271 131q8 2 14 3t12 1q35 0 58.5 -33t23.5 -67q0 -18 -8 -35t-29 -27l-266 -129q-8 -0CD61AAA36" />
<glyph unicode="&#xce;" horiz-adv-x="512" d="M-33 1759q0 23 10.5 43.5t34.5 32.5l213 115q16 10 35 10q14 0 35 -10l213 -113q23 -14 33 -35.5t10 -44.5015C6E6A49" />
<glyph unicode="&#xcf;" horiz-adv-x="512" d="M2 1788q0 43 30.5 74.5t73.5 31.5t73 -31.5t30 -74.5t-29.5 -76t-73.5 -33q-43 0 -73.5 33t-30.5 76zM123 84v1331q0 43 41 62.5t92 19.5q49 0 91 -19.5t42 -62.5v-1331q0 -41 -42 -62.5t-91 -21.5q-51 0 -92 21.5t-41 62.5zM307 1788q0 43 31 74.5t76 31.5 q41 0 71.5 -31.5t30.5 -74.5t-30.5 -76t-71.5 -33q-45 0 -76 33t-31 76z" />
<glyph unicode="&#xd0;" horiz-adv-x="1202" d="M-14 782q0 37 17 67t50 30h84v536q0 33 32 57.5t85 24.5h362q100 0 188.5 -25.5t154 -81t102.5 -144.5t37 -218v-559q0 -129 -37 -218t-102.5 -144.5t-153.5 -81t-189 -25.5h-362q-53 0 -85 24.5t-32 57.5v606h-84q-33 0 -50 28.5t-17 65.5zM403 233h213 q102 0 158.5 57.5t56.5 178.5v559q0 121 -56 178.5t-159 57.5h-213v-385h158q35 0 52.5 -30t17.5 -67t-17.5 -65.5t-52.5 -28.5h-158v-455z" />
<glyph unicode="&#xd1;" horiz-adv-x="1239" d="M123 84v1329q0 43 41 63.5t92 20.5q37 0 63.5 -5t48 -20.5t42 -43t45.5 -72.5l395 -764v823q0 43 41 62.5t0D7A83BAE0" />
<glyph unicode="&#xd2;" horiz-adv-x="1171" d="M106 457v571q0 129 37 218t101.5 144.5t151.5 81t190 25.5q100 0 188 -25.5t153.5 -81t102.5 -144.5t37 -218v-571q0 -129 -37 -218t-102.5 -144.5t-153.5 -81t-188 -25.5q-102 0 -189.5 25.5t-152 81t-101.5 144.5t-37 218zM354 1860q0 35 23.5 67.5t58.5 32.5 q6 0 12.5 -1t14.5 -3l270 -131q35 -18 35 -64q0 -35 -23.5 -67.5t-58.5 -32.5q-8 0 -14 2t-15 6l-266 129q-20 10 -28.5 26.5t-8.5 35.5zM373 457q0 -123 55 -179.5t158 -56.5q100 0 157.5 56.5t57.5 179.5v571q0 123 -57.5 179.5t-157.5 56.5q-102 0 -157.5 -56.5 t-55.5 -179.5v-571z" />
<glyph unicode="&#xd3;" horiz-adv-x="1171" d="M106 457v571q0 129 37 218t101.5 144.5t151.5 81t190 25.5q100 0 188 -25.5t153.5 -81t102.5 -144.5t37 -2030242BA3D" />
<glyph unicode="&#xd4;" horiz-adv-x="1171" d="M106 457v571q0 129 37 218t101.5 144.5t151.5 81t190 25.5q100 0 188 -25.5t153.5 -81t102.5 -144.5t37 -218v-571q0 -129 -37 -218t-102.5 -144.5t-153.5 -81t-188 -25.5q-102 0 -189.5 25.5t-152 81t-101.5 144.5t-37 218zM293 1759q0 23 10 43.5t35 32.5l213 115 q16 10 35 10q14 0 35 -10l213 -113q23 -14 33 -35.5t10 -44.5q0 -31 -16.5 -55.5t-41.5 -24.5q-12 0 -20 6l-213 115l-213 -115q-12 -6 -23 -6q-25 0 -41 24.5t-16 57.5zM373 457q0 -123 55 -179.5t158 -56.5q100 0 157.5 56.5t57.5 179.5v571q0 123 -57.5 179.5 t-157.5 56.5q-102 0 -157.5 -56.5t-55.5 -179.5v-571z" />
<glyph unicode="&#xd5;" horiz-adv-x="1171" d="M106 457v571q0 129 37 218t101.5 144.5t151.5 81t190 25.5q100 0 188 -25.5t153.5 -81t102.5 -144.5t37 -218v-571q0 -129 -37 -218t-102.5 -144.5t-153.5 -81t-188 -25.5q-102 0 -189.5 25.5t-152 81t-101.5 144.5t-37 218zM236 1798q0 47 20 75t49 42t58.5 18t48.5 4 q45 0 79.5 -9t68.5 -20.5t68 -20.5t74 -9q33 0 57.5 7t43 16.5t34 17.5t31.5 8q20 0 32.5 -10t21 -24.5t11.5 -29t3 -22.5q0 -47 -20.5 -74.5t-49 -42t-58.5 -18.5t-46 -4q-51 0 -88 9t-70 20.5t-63.5 20.5t-69.5 9q-33 0 -56.5 -8t-43 -17.5t-36 -16.5t-32.5 -7 q-20 0 -33.5 10.5t-20.5 24.5t-10 28.5t-3 22.5zM373 457q0 -123 55 -179.5t158 -56.5q100 0 157.5 56.5t57.5 179.5v571q0 123 -57.5 179.5t-157.5 56.5q-102 0 -157.5 -56.5t-55.5 -179.5v-571z" />
<glyph unicode="&#xd6;" horiz-adv-x="1171" d="M106 457v571q0 129 37 218t101.5 144.5t151.5 81t190 25.5q100 0 188 -25.5t153.5 -81t102.5 -144.5t37 -20E59C9FA6E" />
<glyph unicode="&#xd7;" horiz-adv-x="833" d="M86 356q0 31 20 52l173 155l-170 152q-20 25 -21 53q0 47 38 85t85 38q29 0 53 -21l152 -153l153 153q20 206B4529A07" />
<glyph unicode="&#xd8;" horiz-adv-x="1173" d="M106 457v571q0 129 37 218t101.5 144.5t151.5 81t190 25.5q68 0 130 -11t115 -36l43 86q10 23 30.5 33t43.5 10q37 0 70 -25.5t33 -66.5q0 -20 -9 -37l-59 -119q41 -55 62.5 -130t21.5 -173v-571q0 -129 -37 -218t-102.5 -144.5t-153.5 -81t-188 -25.5q-68 0 -129.5 10 t-114.5 35l-35 -70q-10 -23 -32.5 -34t-47.5 -11q-45 0 -71.5 28.5t-26.5 61.5q0 18 10 35l54 107q-41 55 -64 130.5t-23 176.5zM373 516l348 709q-51 39 -135 39q-102 0 -157.5 -56.5t-55.5 -179.5v-512zM453 256q49 -35 133 -35q100 0 157.5 56.5t57.5 179.5v504z" />
<glyph unicode="&#xd9;" horiz-adv-x="1216" d="M117 457v958q0 43 41 62.5t92 19.5q49 0 91 -19.5t42 -62.5v-958q0 -121 59.5 -178.5t165.5 -57.5t166 57.0D277C3AE8" />
<glyph unicode="&#xda;" horiz-adv-x="1216" d="M117 457v958q0 43 41 62.5t92 19.5q49 0 91 -19.5t42 -62.5v-958q0 -121 59.5 -178.5t165.5 -57.5t166 57.081E100A31" />
<glyph unicode="&#xdb;" horiz-adv-x="1216" d="M117 457v958q0 43 41 62.5t92 19.5q49 0 91 -19.5t42 -62.5v-958q0 -121 59.5 -178.5t165.5 -57.5t166 57.0E33DDAABE" />
<glyph unicode="&#xdc;" horiz-adv-x="1216" d="M117 457v958q0 43 41 62.5t92 19.5q49 0 91 -19.5t42 -62.5v-958q0 -121 59.5 -178.5t165.5 -57.5t166 57.5t60 178.5v958q0 43 40.5 62.5t92.5 19.5q49 0 91 -19.5t42 -62.5v-958q0 -129 -38 -218t-104.5 -144.5t-156.5 -81t-193 -25.5q-104 0 -193 25.5t-155.5 81 t-104.5 144.5t-38 218zM350 1788q0 43 31 74.5t74 31.5t72.5 -31.5t29.5 -74.5t-29.5 -76t-72.5 -33t-74 33t-31 76zM655 1788q0 43 31 74.5t76 31.5q41 0 71.5 -31.5t30.5 -74.5t-30.5 -76t-71.5 -33q-45 0 -76 33t-31 76z" />
<glyph unicode="&#xdd;" horiz-adv-x="1175" d="M18 1386q0 25 17.5 45.5t44 35t57.5 22.5t58 8q33 0 50 -12t31 -41l312 -592l313 592q14 27 30.5 40t49.5 08FF7D1A87" />
<glyph unicode="&#xde;" horiz-adv-x="1064" d="M125 84v1358q0 37 36 59.5t89 22.5q59 0 99 -22.5t40 -59.5v-324q33 59 100.5 107.5t163.5 48.5q74 0 140.5 -31t115.5 -85t78 -127t29 -159v-196q0 -84 -30 -158t-79 -129t-112.5 -87t-130.5 -32q-47 0 -90.5 13.5t-80 36t-63.5 51t-41 61.5v-348q0 -31 -40 -57.5 t-95 -26.5q-57 0 -93 26.5t-36 57.5zM389 653q0 -18 13.5 -44.5t38 -50t58 -40t74.5 -16.5q35 0 67 13t56.5 36.5t40 55.5t15.5 69v196q0 35 -14.5 66t-40 54.5t-58.5 36.5t-70 13q-35 0 -67.5 -12t-57 -33.5t-40 -53.5t-15.5 -71v-219z" />
<glyph unicode="&#xdf;" horiz-adv-x="1228" d="M6 877q0 35 16.5 65.5t51.5 30.5h114v188q0 82 21.5 157t69 131t124 90t185.5 34q84 0 157.5 -22.5t128 -608DA0B8A2F" />
<glyph unicode="&#xe0;" horiz-adv-x="964" d="M45 254q0 88 35 146.5t97.5 92t150.5 48t194 14.5h84v27q0 33 -9 66.5t-30.5 60t-55.5 44t-85 17.5q-59 0 0E396EFA1B" />
<glyph unicode="&#xe1;" horiz-adv-x="964" d="M45 254q0 88 35 146.5t97.5 92t150.5 48t194 14.5h84v27q0 33 -9 66.5t-30.5 60t-55.5 44t-85 17.5q-59 0 03F4C17A27" />
<glyph unicode="&#xe2;" horiz-adv-x="964" d="M45 254q0 88 35 146.5t97.5 92t150.5 48t194 14.5h84v27q0 33 -9 66.5t-30.5 60t-55.5 44t-85 17.5q-59 0 0DFD3FBACD" />
<glyph unicode="&#xe3;" horiz-adv-x="964" d="M45 254q0 88 35 146.5t97.5 92t150.5 48t194 14.5h84v27q0 33 -9 66.5t-30.5 60t-55.5 44t-85 17.5q-59 0 0DA8632A04" />
<glyph unicode="&#xe4;" horiz-adv-x="964" d="M45 254q0 88 35 146.5t97.5 92t150.5 48t194 14.5h84v27q0 33 -9 66.5t-30.5 60t-55.5 44t-85 17.5q-59 0 0A00199AC4" />
<glyph unicode="&#xe5;" horiz-adv-x="964" d="M45 254q0 88 35 146.5t97.5 92t150.5 48t194 14.5h84v27q0 33 -9 66.5t-30.5 60t-55.5 44t-85 17.5q-59 0 04B6D59A13" />
<glyph unicode="&#xe6;" horiz-adv-x="1531" d="M45 252q0 88 35 147.5t97.5 93t150.5 48t194 14.5h82v29q0 33 -9 66.5t-30.5 60t-55.5 44t-85 17.5q-59 0 -95 -10t-60.5 -22.5t-41 -22.5t-34.5 -10q-45 0 -69 43t-24 90q0 31 31 57.5t79 46t106.5 30.5t113.5 11q115 0 193.5 -44t126.5 -116q57 72 134 116t169 44 q82 0 158.5 -26.5t135 -77t94.5 -123t36 -164.5q0 -61 -15.5 -96t-41 -53.5t-61.5 -22.5t-75 -4h-414v-31q0 -90 67 -143.5t171 -53.5q51 0 88 12.5t66.5 27t53 26.5t46.5 12t41 -12t30.5 -29.5t19.5 -38t7 -36.5q0 -29 -27.5 -59t-75.5 -54.5t-114.5 -40.5t-146.5 -16 q-121 0 -218.5 51t-160.5 145q-72 -92 -167 -144t-192 -52q-63 0 -119.5 16t-99.5 50t-68.5 84t-25.5 120zM309 287q0 -55 31 -82t78 -27q33 0 65.5 16.5t59 44t44 63.5t17.5 73v43h-31q-51 0 -99 -4t-85 -17.5t-58.5 -40t-21.5 -69.5zM870 573h299q35 0 47.5 11.5 t12.5 42.5q0 74 -53.5 119t-126.5 45q-72 0 -125.5 -43t-53.5 -117v-58z" />
<glyph unicode="&#xe7;" horiz-adv-x="888" d="M70 401v164q0 88 25.5 165t79.5 133.5t137 89t200 32.5q72 0 132.5 -13.5t103.5 -36t67.5 -51t24.5 -59.5q0D10AFDAC7" />
<glyph unicode="&#xe8;" horiz-adv-x="991" d="M66 401v174q0 82 34.5 157t95 131.5t142.5 89t176 32.5q84 0 161 -28.5t135 -79t92 -121t34 -156.5q0 -66 -16.5 -102.5t-44 -54t-61.5 -21.5t-69 -4h-415v-31q0 -90 65.5 -143.5t173.5 -53.5q51 0 88 12.5t66 27t52.5 26.5t45.5 12q23 0 41.5 -12t31.5 -30.5t20.5 -39 t7.5 -34.5q0 -27 -26 -56.5t-73 -55.5t-113.5 -42t-148.5 -16q-109 0 -200 29.5t-156.5 85t-102 133t-36.5 171.5zM276 1362q0 35 24 67.5t58 32.5q6 0 12.5 -1t14.5 -3l270 -131q35 -18 35 -63q0 -35 -23.5 -68t-58.5 -33q-8 0 -14 2t-14 6l-267 129q-20 10 -28.5 26.5 t-8.5 35.5zM330 573h299q33 0 46 10.5t13 45.5q0 72 -53 117t-127 45q-70 0 -124 -43t-54 -117v-58z" />
<glyph unicode="&#xe9;" horiz-adv-x="991" d="M66 401v174q0 82 34.5 157t95 131.5t142.5 89t176 32.5q84 0 161 -28.5t135 -79t92 -121t34 -156.5q0 -66 -16.5 -102.5t-44 -54t-61.5 -21.5t-69 -4h-415v-31q0 -90 65.5 -143.5t173.5 -53.5q51 0 88 12.5t66 27t52.5 26.5t45.5 12q23 0 41.5 -12t31.5 -30.5t20.5 -39 t7.5 -34.5q0 -27 -26 -56.5t-73 -55.5t-113.5 -42t-148.5 -16q-109 0 -200 29.5t-156.5 85t-102 133t-36.5 171.5zM309 1264q0 45 35 63l270 131q8 2 14.5 3t12.5 1q35 0 58.5 -32.5t23.5 -67.5q0 -18 -8 -34.5t-29 -27.5l-266 -129q-8 -4 -14.5 -6t-14.5 -2q-35 0 -58.5 33 t-23.5 68zM330 573h299q33 0 46 10.5t13 45.5q0 72 -53 117t-127 45q-70 0 -124 -43t-54 -117v-58z" />
<glyph unicode="&#xea;" horiz-adv-x="991" d="M66 401v174q0 82 34.5 157t95 131.5t142.5 89t176 32.5q84 0 161 -28.5t135 -79t92 -121t34 -156.5q0 -66 -16.5 -102.5t-44 -54t-61.5 -21.5t-69 -4h-415v-31q0 -90 65.5 -143.5t173.5 -53.5q51 0 88 12.5t66 27t52.5 26.5t45.5 12q23 0 41.5 -12t31.5 -30.5t20.5 -39 t7.5 -34.5q0 -27 -26 -56.5t-73 -55.5t-113.5 -42t-148.5 -16q-109 0 -200 29.5t-156.5 85t-102 133t-36.5 171.5zM217 1262q0 23 10.5 43t34.5 32l213 115q16 10 35 10q14 0 35 -10l213 -113q23 -14 33 -35.5t10 -43.5q0 -31 -16.5 -55.5t-41.5 -24.5q-12 0 -20 6l-213 114 l-213 -114q-12 -6 -23 -6q-25 0 -41 24.5t-16 57.5zM330 573h299q33 0 46 10.5t13 45.5q0 72 -53 117t-127 45q-70 0 -124 -43t-54 -117v-58z" />
<glyph unicode="&#xeb;" horiz-adv-x="991" d="M66 401v174q0 82 34.5 157t95 131.5t142.5 89t176 32.5q84 0 161 -28.5t135 -79t92 -121t34 -156.5q0 -66 0EF8520AB9" />
<glyph unicode="&#xec;" horiz-adv-x="468" d="M-4 1362q0 35 23.5 67.5t58.5 32.5q6 0 12 -1t14 -3l271 -131q35 -18 35 -63q0 -35 -24 -68t-58 -33q-8 0 09C55FBAE2" />
<glyph unicode="&#xed;" horiz-adv-x="468" d="M61 1264q0 45 35 63l271 131q8 2 14 3t12 1q35 0 58.5 -32.5t23.5 -67.5q0 -18 -8 -34.5t-29 -27.5l-266 -0F37F85ADA" />
<glyph unicode="&#xee;" horiz-adv-x="468" d="M-57 1262q0 23 10 43t35 32l213 115q16 10 35 10q14 0 34 -10l213 -113q23 -14 33 -35.5t10 -43.5q0 -31 -08E68D3AC6" />
<glyph unicode="&#xef;" horiz-adv-x="468" d="M-16 1290q0 43 30.5 75t73.5 32t72.5 -32t29.5 -75t-29.5 -75.5t-72.5 -32.5t-73.5 32.5t-30.5 75.5zM102 006E2FAA5D" />
<glyph unicode="&#xf0;" horiz-adv-x="1048" d="M66 401v168q0 86 28.5 161t77.5 132.5t114.5 90t141.5 32.5q92 0 164 -47t102 -113q-4 92 -29.5 172t-62.5 144l-108 -64q-10 -8 -27 -8q-35 0 -64.5 35t-29.5 72q0 33 30 51l95 55q-16 18 -37 27.5t-39 13.5q-20 16 -37.5 36.5t-17.5 55.5q0 16 6 39t21.5 42.5t41 32.5 t62.5 13q59 0 117.5 -31.5t109.5 -91.5l115 70q12 6 26 6q35 0 62.5 -34t27.5 -68q0 -37 -28 -54l-109 -65q66 -127 102.5 -276.5t36.5 -284.5v-312q0 -84 -35.5 -159.5t-97 -133t-142.5 -92t-171 -34.5t-171 34.5t-142.5 93t-97 134t-35.5 157.5zM330 401q0 -37 14 -70.5 t39 -59t58.5 -42t70.5 -16.5q39 0 71.5 16.5t57.5 42t39 59.5t14 70v170q0 39 -15 73t-42 58.5t-59.5 38t-67.5 13.5q-39 0 -71.5 -15.5t-57.5 -42t-38 -59.5t-13 -68v-168z" />
<glyph unicode="&#xf1;" horiz-adv-x="1071" d="M102 84v807q0 37 36 59.5t95 22.5q47 0 82 -22.5t35 -59.5v-62q29 59 100.5 107.5t174.5 48.5q70 0 134 -32.5t112.5 -90t77 -132.5t28.5 -161v-485q0 -41 -42 -62.5t-91 -21.5q-47 0 -89 21.5t-42 62.5v485q0 35 -14.5 68t-38 59.5t-56.5 42t-69 15.5 q-63 0 -115.5 -49.5t-52.5 -135.5v-485q0 -31 -40 -57.5t-94 -26.5q-59 0 -95 26.5t-36 57.5zM182 1300q0 47 20.5 75t49.5 42.5t58.5 18.5t47.5 4q45 0 80 -9.5t69 -20.5t67.5 -20.5t74.5 -9.5q33 0 57.5 7.5t43 16.5t34 17.5t31.5 8.5q20 0 32.5 -10.5t21 -25t11.5 -28.5 t3 -23q0 -47 -20.5 -74.5t-49.5 -42t-58.5 -18.5t-45.5 -4q-51 0 -88 9.5t-70 20.5t-63.5 20.5t-69.5 9.5q-33 0 -56.5 -8.5t-43 -17.5t-36 -16.5t-32.5 -7.5q-20 0 -33.5 10.5t-21 25t-10.5 28.5t-3 22z" />
<glyph unicode="&#xf2;" horiz-adv-x="1019" d="M66 401v168q0 82 34.5 158t95 133.5t141.5 91t173 33.5q88 0 169 -32.5t142.5 -90t97 -132.5t35.5 -161v-168q0 -82 -35.5 -157.5t-97 -134t-142.5 -93t-169 -34.5q-90 0 -171 34.5t-141.5 92t-96 133t-35.5 159.5zM279 1362q0 35 23.5 67.5t57.5 32.5q6 0 12.5 -1 t14.5 -3l270 -131q35 -18 35 -63q0 -35 -23.5 -68t-58.5 -33q-8 0 -14 2t-14 6l-267 129q-20 10 -28 26.5t-8 35.5zM330 401q0 -37 14 -70.5t39 -59t57.5 -42t69.5 -16.5t69.5 16.5t57.5 42t39 59.5t14 70v168q0 35 -14 68t-39 59.5t-57.5 42t-69.5 15.5t-69.5 -15.5 t-57.5 -42t-39 -59.5t-14 -68v-168z" />
<glyph unicode="&#xf3;" horiz-adv-x="1019" d="M66 401v168q0 82 34.5 158t95 133.5t141.5 91t173 33.5q88 0 169 -32.5t142.5 -90t97 -132.5t35.5 -161v-168q0 -82 -35.5 -157.5t-97 -134t-142.5 -93t-169 -34.5q-90 0 -171 34.5t-141.5 92t-96 133t-35.5 159.5zM309 1264q0 45 35 63l270 131q8 2 14.5 3t12.5 1 q35 0 58.5 -32.5t23.5 -67.5q0 -18 -8 -34.5t-29 -27.5l-266 -129q-8 -4 -14.5 -6t-14.5 -2q-35 0 -58.5 33t-23.5 68zM330 401q0 -37 14 -70.5t39 -59t57.5 -42t69.5 -16.5t69.5 16.5t57.5 42t39 59.5t14 70v168q0 35 -14 68t-39 59.5t-57.5 42t-69.5 15.5t-69.5 -15.5 t-57.5 -42t-39 -59.5t-14 -68v-168z" />
<glyph unicode="&#xf4;" horiz-adv-x="1019" d="M66 401v168q0 82 34.5 158t95 133.5t141.5 91t173 33.5q88 0 169 -32.5t142.5 -90t97 -132.5t35.5 -161v-168q0 -82 -35.5 -157.5t-97 -134t-142.5 -93t-169 -34.5q-90 0 -171 34.5t-141.5 92t-96 133t-35.5 159.5zM217 1262q0 23 10.5 43t34.5 32l213 115q16 10 35 10 q14 0 35 -10l213 -113q23 -14 33 -35.5t10 -43.5q0 -31 -16.5 -55.5t-41.5 -24.5q-12 0 -20 6l-213 114l-213 -114q-12 -6 -23 -6q-25 0 -41 24.5t-16 57.5zM330 401q0 -37 14 -70.5t39 -59t57.5 -42t69.5 -16.5t69.5 16.5t57.5 42t39 59.5t14 70v168q0 35 -14 68t-39 59.5 t-57.5 42t-69.5 15.5t-69.5 -15.5t-57.5 -42t-39 -59.5t-14 -68v-168z" />
<glyph unicode="&#xf5;" horiz-adv-x="1019" d="M66 401v168q0 82 34.5 158t95 133.5t141.5 91t173 33.5q88 0 169 -32.5t142.5 -90t97 -132.5t35.5 -161v-168q0 -82 -35.5 -157.5t-97 -134t-142.5 -93t-169 -34.5q-90 0 -171 34.5t-141.5 92t-96 133t-35.5 159.5zM162 1300q0 47 20.5 75t49 42.5t58 18.5t48.5 4 q45 0 80 -9.5t68.5 -20.5t67.5 -20.5t75 -9.5q33 0 57.5 7.5t43 16.5t33.5 17.5t32 8.5q20 0 32.5 -10.5t20.5 -25t11 -28.5t3 -23q0 -47 -20.5 -74.5t-49 -42t-58 -18.5t-46.5 -4q-51 0 -88 9.5t-69.5 20.5t-63.5 20.5t-70 9.5q-33 0 -56.5 -8.5t-42.5 -17.5t-35.5 -16.5 t-33.5 -7.5q-20 0 -33.5 10.5t-20.5 25t-10 28.5t-3 22zM330 401q0 -37 14 -70.5t39 -59t57.5 -42t69.5 -16.5t69.5 16.5t57.5 42t39 59.5t14 70v168q0 35 -14 68t-39 59.5t-57.5 42t-69.5 15.5t-69.5 -15.5t-57.5 -42t-39 -59.5t-14 -68v-168z" />
<glyph unicode="&#xf6;" horiz-adv-x="1019" d="M66 401v168q0 82 34.5 158t95 133.5t141.5 91t173 33.5q88 0 169 -32.5t142.5 -90t97 -132.5t35.5 -161v-10FEF5AEAA3" />
<glyph unicode="&#xf7;" horiz-adv-x="913" d="M45 487q0 45 24.5 75t61.5 30h649q35 0 61.5 -30t26.5 -75q0 -47 -26.5 -73.5t-61.5 -26.5h-649q-37 0 -6102C45E7AD8" />
<glyph unicode="&#xf8;" horiz-adv-x="1019" d="M66 401v168q0 82 34.5 158t95 133.5t141.5 91t173 33.5q127 0 231 -63l70 98q16 25 41 24q25 0 43 -18t18 0705818A1A" />
<glyph unicode="&#xf9;" horiz-adv-x="1073" d="M92 397v492q0 31 39 57.5t94 26.5q53 0 92 -26.5t39 -57.5v-492q0 -35 14.5 -67.5t39 -59t57.5 -42t70 -15089EDCBA78" />
<glyph unicode="&#xfa;" horiz-adv-x="1073" d="M92 397v492q0 31 39 57.5t94 26.5q53 0 92 -26.5t39 -57.5v-492q0 -35 14.5 -67.5t39 -59t57.5 -42t70 -1505F25ABA50" />
<glyph unicode="&#xfb;" horiz-adv-x="1073" d="M92 397v492q0 31 39 57.5t94 26.5q53 0 92 -26.5t39 -57.5v-492q0 -35 14.5 -67.5t39 -59t57.5 -42t70 -150A78851A38" />
<glyph unicode="&#xfc;" horiz-adv-x="1073" d="M92 397v492q0 31 39 57.5t94 26.5q53 0 92 -26.5t39 -57.5v-492q0 -35 14.5 -67.5t39 -59t57.5 -42t70 -150F545A8AD5" />
<glyph unicode="&#xfd;" horiz-adv-x="974" d="M12 -340q0 45 15.5 78t52.5 33q33 0 81 12t93 46t79 92.5t40 150.5l-353 753q-8 20 -8 35q0 27 18.5 49.5t0954C7DA4C" />
<glyph unicode="&#xfe;" horiz-adv-x="1064" d="M106 -369v1827q0 37 36 59.5t89 22.5q59 0 99.5 -22.5t40.5 -59.5v-629q33 59 100.5 107.5t159.5 48.5q76 0 143.5 -32.5t116.5 -90t77.5 -132.5t28.5 -161v-168q0 -82 -29.5 -157.5t-78.5 -134t-113.5 -93t-136.5 -34.5q-92 0 -166 49t-102 112v-512q0 -33 -40 -58.5 t-95 -25.5q-57 0 -93.5 26t-36.5 58zM371 365q0 -16 13 -42t37.5 -50.5t57.5 -42t72 -17.5q37 0 69.5 16.5t57 43t40 60.5t15.5 68v168q0 35 -14 68t-40 59.5t-59.5 42t-72.5 15.5q-33 0 -64.5 -12.5t-56.5 -37t-40 -58.5t-15 -77v-204z" />
<glyph unicode="&#xff;" horiz-adv-x="974" d="M12 -340q0 45 15.5 78t52.5 33q33 0 81 12t93 46t79 92.5t40 150.5l-353 753q-8 20 -8 35q0 27 18.5 49.5t0EA017FADE" />
<glyph unicode="&#x152;" horiz-adv-x="1697" d="M109 457v571q0 129 31.5 218t89 144.5t136 81t173.5 25.5q86 0 171 -37t128 -114v67q0 41 35.5 62.5t80.5 21.5h629q43 0 62.5 -37t19.5 -78q0 -47 -20.5 -82.5t-61.5 -35.5h-514v-410h246q41 0 61.5 -33t20.5 -73q0 -35 -19.5 -69t-62.5 -34h-246v-412h514 q41 0 61.5 -35.5t20.5 -82.5q0 -41 -19.5 -78t-62.5 -37h-629q-45 0 -80.5 21.5t-35.5 62.5v55q-43 -78 -128 -114.5t-171 -36.5q-94 0 -173 25.5t-136.5 81t-89 144.5t-31.5 218zM375 457q0 -123 55 -179.5t158 -56.5q100 0 157.5 56.5t57.5 179.5v571q0 123 -57.5 179.5 t-157.5 56.5q-102 0 -157.5 -56.5t-55.5 -179.5v-571z" />
<glyph unicode="&#x153;" horiz-adv-x="1615" d="M66 401v168q0 82 34.5 158t95 133.5t141.5 91t173 33.5q98 0 182 -44t142 -118q57 74 133.5 118t169.5 44q86 0 162.5 -28.5t135 -79t92.5 -121t34 -154.5q0 -66 -16.5 -102.5t-44 -55t-62.5 -22.5t-70 -4h-414v-31q0 -90 65.5 -143.5t174.5 -53.5q51 0 88 12.5t65.5 27 t51 26.5t47.5 12q23 0 41 -12t30.5 -30.5t19.5 -39t7 -36.5q0 -25 -25.5 -54.5t-72.5 -55.5t-113.5 -42t-148.5 -16q-111 0 -201 42t-149 119q-59 -74 -142.5 -117.5t-181.5 -43.5q-90 0 -171 34.5t-141.5 92t-96 133t-35.5 159.5zM330 401q0 -37 14 -70.5t39 -59t57.5 -42 t69.5 -16.5t69.5 16.5t57.5 42t39 59.5t14 70v168q0 35 -14 68t-39 59.5t-57.5 42t-69.5 15.5t-69.5 -15.5t-57.5 -42t-39 -59.5t-14 -68v-168zM954 573h299q33 0 46.5 10.5t13.5 45.5q0 72 -53.5 117t-126.5 45q-70 0 -124.5 -43t-54.5 -115v-60z" />
<glyph unicode="&#x178;" horiz-adv-x="1175" d="M18 1386q0 25 17.5 45.5t44 35t57.5 22.5t58 8q33 0 50 -12t31 -41l312 -592l313 592q14 27 30.5 40t49.5 052DDBBAD4" />
<glyph unicode="&#x2c6;" horiz-adv-x="583" d="M0 1262q0 23 10 43t35 32l213 115q16 10 35 10q14 0 35 -10l213 -113q23 -14 33 -35.5t10 -43.5q0 -31 -160E8ABB7A63" />
<glyph unicode="&#x2dc;" horiz-adv-x="700" d="M0 1300q0 47 20.5 75t49 42.5t58.5 18.5t48 4q45 0 80 -9.5t68.5 -20.5t67.5 -20.5t75 -9.5q33 0 57.5 7.5t43 16.5t33.5 17.5t32 8.5q20 0 32.5 -10.5t20.5 -25t11 -28.5t3 -23q0 -47 -20.5 -74.5t-49 -42t-58 -18.5t-46.5 -4q-51 0 -88 9.5t-69.5 20.5t-63 20.5 t-69.5 9.5q-33 0 -56.5 -8.5t-43 -17.5t-36 -16.5t-32.5 -7.5q-20 0 -34 10.5t-21 25t-10 28.5t-3 22z" />
<glyph unicode="&#x2000;" horiz-adv-x="1036" />
<glyph unicode="&#x2001;" horiz-adv-x="2073" />
<glyph unicode="&#x2002;" horiz-adv-x="1036" />
<glyph unicode="&#x2003;" horiz-adv-x="2073" />
<glyph unicode="&#x2004;" horiz-adv-x="691" />
<glyph unicode="&#x2005;" horiz-adv-x="518" />
<glyph unicode="&#x2006;" horiz-adv-x="345" />
<glyph unicode="&#x2007;" horiz-adv-x="345" />
<glyph unicode="&#x2008;" horiz-adv-x="259" />
<glyph unicode="&#x2009;" horiz-adv-x="414" />
<glyph unicode="&#x200a;" horiz-adv-x="115" />
<glyph unicode="&#x2010;" horiz-adv-x="845" d="M74 492q0 47 22.5 78.5t59.5 31.5h532q33 0 59.5 -31.5t26.5 -78.5q0 -49 -26.5 -79t-59.5 -30h-532q-37 0 -59.5 30t-22.5 79z" />
<glyph unicode="&#x2011;" horiz-adv-x="845" d="M74 492q0 47 22.5 78.5t59.5 31.5h532q33 0 59.5 -31.5t26.5 -78.5q0 -49 -26.5 -79t-59.5 -30h-532q-37 0 -59.5 30t-22.5 79z" />
<glyph unicode="&#x2012;" horiz-adv-x="845" d="M74 492q0 47 22.5 78.5t59.5 31.5h532q33 0 59.5 -31.5t26.5 -78.5q0 -49 -26.5 -79t-59.5 -30h-532q-37 0 -59.5 30t-22.5 79z" />
<glyph unicode="&#x2013;" horiz-adv-x="968" d="M74 492q0 47 22.5 78.5t59.5 31.5h655q33 0 59.5 -31.5t26.5 -78.5q0 -49 -26.5 -79t-59.5 -30h-655q-37 0 -59.5 30t-22.5 79z" />
<glyph unicode="&#x2014;" horiz-adv-x="1544" d="M74 492q0 47 22.5 78.5t59.5 31.5h1230q33 0 58.5 -31.5t25.5 -78.5q0 -49 -25.5 -79t-58.5 -30h-1230q-37 0 -59.5 30t-22.5 79z" />
<glyph unicode="&#x2018;" horiz-adv-x="376" d="M45 1184q0 10 3 25.5t15.5 47t35 86t61.5 142.5q8 18 23.5 25.5t29.5 7.5q29 0 58.5 -17.5t29.5 -52.5q0 -0AFAAC7A65" />
<glyph unicode="&#x2019;" horiz-adv-x="374" d="M57 1378q0 57 40.5 98.5t97.5 41.5t98 -41t41 -97q0 -10 -3 -25.5t-15.5 -47t-35 -86t-61.5 -142.5q-8 -1802E2DBBADA" />
<glyph unicode="&#x201a;" horiz-adv-x="395" d="M59 127q0 57 40.5 98t97.5 41t98 -41t41 -96q0 -10 -3 -25.5t-15.5 -47t-35 -85t-61.5 -141.5q-8 -20 -23.05CCC12A8F" />
<glyph unicode="&#x201c;" horiz-adv-x="757" d="M45 1184q0 10 3 25.5t15.5 47t35 86t61.5 142.5q8 18 23.5 25.5t29.5 7.5q29 0 58.5 -17.5t29.5 -52.5q0 -081E575AB2" />
<glyph unicode="&#x201d;" horiz-adv-x="755" d="M57 1378q0 57 40.5 98.5t97.5 41.5t98 -41t41 -97q0 -10 -3 -25.5t-15.5 -47t-35 -86t-61.5 -142.5q-8 -18063B908A48" />
<glyph unicode="&#x201e;" horiz-adv-x="776" d="M59 127q0 57 40.5 98t97.5 41t98 -41t41 -96q0 -10 -3 -25.5t-15.5 -47t-35 -85t-61.5 -141.5q-8 -20 -23.0F8BD66A76" />
<glyph unicode="&#x2022;" horiz-adv-x="673" d="M68 614q0 51 21.5 98.5t58 82t86 56t104.5 21.5q53 0 102 -21.5t86 -56t58.5 -81.5t21.5 -99q0 -53 -21.5 -100t-58.5 -82t-86 -56.5t-102 -21.5q-55 0 -104.5 21.5t-86 56.5t-58 82t-21.5 100z" />
<glyph unicode="&#x2026;" d="M57 127q0 57 40.5 98t99.5 41q55 0 96 -41t41 -98q0 -55 -41 -97t-96 -42q-59 0 -99.5 42t-40.5 97zM453 127q0 57 40 98t99 41q55 0 96 -41t41 -98q0 -55 -41 -97t-96 -42q-59 0 -99 42t-40 97zM844 127q0 57 40 98t99 41q55 0 96 -41t41 -98q0 -55 -41 -97t-96 -42 q-59 0 -99 42t-40 97z" />
<glyph unicode="&#x202f;" horiz-adv-x="414" />
<glyph unicode="&#x2039;" horiz-adv-x="557" d="M49 565q0 25 13.5 45.5t33.5 59.5l150 278q18 35 76 35q33 0 62.5 -13.5t52 -32.5t35.5 -43t13 -44q0 -16 0936CA7AE3" />
<glyph unicode="&#x203a;" horiz-adv-x="557" d="M72 285q0 14 6 26l137 256l-137 258q-6 8 -6 25q0 20 13 44t35.5 43t52.5 32.5t63 13.5q57 0 73 -35l152 -0DB6F4AA49" />
<glyph unicode="&#x205f;" horiz-adv-x="518" />
<glyph unicode="&#x20ac;" horiz-adv-x="1261" d="M49 555q0 41 23.5 68.5t60.5 27.5h94v144h-94q-37 0 -60.5 25.5t-23.5 66.5t23.5 68.5t60.5 27.5h94v45q0 0FB61FBA67" />
<glyph unicode="&#x2122;" horiz-adv-x="1378" d="M82 1505q0 25 10 46.5t35 21.5h442q25 0 35 -21.5t10 -46.5q0 -27 -11 -47t-34 -20h-147v-416q0 -25 -22.50B2F96EAFA" />
<glyph unicode="&#xe000;" horiz-adv-x="983" d="M0 0v983h983v-983h-983z" />
</font>
</defs>
</svg>
